<svg width="208" height="57" viewBox="0 0 208 57" fill="none" xmlns="http://www.w3.org/2000/svg">
<path d="M82.3035 44.9833C82.1941 45.0492 82.1504 45.1481 82.1504 45.2689C82.1504 45.3788 82.1942 45.4666 82.2816 45.5216C82.3691 45.5875 82.4893 45.6204 82.6424 45.6204C82.7736 45.6204 82.9048 45.5765 83.0251 45.5106C83.1453 45.4447 83.2328 45.3239 83.2874 45.1701V44.8735H82.7955C82.5768 44.8845 82.4128 44.9284 82.3035 44.9943V44.9833Z" fill="white"/>
<path d="M106.017 48.3993L108.16 48.3444L107.089 45.5765L106.017 48.3993Z" fill="white"/>
<path d="M138.619 47.29C138.346 46.8397 138.346 46.2795 138.619 45.8182L142.238 39.777C142.807 38.8214 142.14 37.6352 141.035 37.6572L65.9805 39.3047C64.8872 39.3267 64.2094 40.5459 64.7779 41.4795L68.3967 47.3669C68.6701 47.8172 68.6701 48.3774 68.3967 48.8387L64.7779 54.8798C64.2094 55.8354 64.8763 57.0217 65.9805 56.9997L141.035 55.3521C142.129 55.3302 142.807 54.111 142.238 53.1773L138.619 47.29ZM78.7065 53.6277L74.9784 53.7045V45.4337L73.087 45.4777V42.6548L78.7065 42.534V53.6277ZM85.6927 46.8177L83.4514 46.8616V46.1477C83.353 46.3673 83.2218 46.5651 83.036 46.6969C82.7627 46.8836 82.38 46.9934 81.9099 46.9934C81.232 47.0044 80.7291 46.8616 80.3902 46.5541C80.0513 46.2465 79.8764 45.8731 79.8764 45.4227C79.8764 44.9175 80.0841 44.5221 80.4995 44.2584C80.915 43.9839 81.5491 43.8411 82.4128 43.8191L83.2437 43.7971C83.2109 43.6653 83.1453 43.5555 83.036 43.4676C82.872 43.3468 82.5987 43.2919 82.2269 43.2919C82.0192 43.2919 81.7896 43.3358 81.5382 43.4127C81.2867 43.4896 81.0681 43.5884 80.8931 43.7202L80.1388 42.2594C80.4777 42.0617 80.8713 41.9079 81.3304 41.7981C81.7896 41.6882 82.2269 41.6223 82.6533 41.6223C83.6154 41.6004 84.3698 41.7871 84.9055 42.1715C85.4413 42.5669 85.7146 43.193 85.7146 44.0717V46.8177H85.6927ZM100.223 49.6076L95.6199 49.7064V53.2542L91.8917 53.3311V42.2374L100.868 42.0397V44.8626L95.6089 44.9834V46.8836L100.212 46.7847V49.6076H100.223ZM109.92 52.9467L109.177 51.0245L104.978 51.1124L104.235 53.0675L100.452 53.1554L105.285 41.9518L108.947 41.875L113.78 52.8588L109.931 52.9467H109.92ZM123.051 51.0355C122.668 51.6066 122.1 52.0789 121.334 52.4414C120.58 52.8039 119.629 52.9906 118.481 53.0236C117.551 53.0455 116.666 52.9576 115.802 52.7709C114.938 52.5732 114.228 52.3206 113.67 51.9911L114.873 49.2341C115.398 49.5307 115.988 49.7613 116.633 49.9371C117.278 50.1128 117.912 50.1897 118.514 50.1677C118.874 50.1677 119.148 50.1348 119.355 50.0799C119.563 50.025 119.716 49.9591 119.804 49.8602C119.902 49.7723 119.946 49.6625 119.946 49.5307C119.946 49.333 119.836 49.1792 119.618 49.0584C119.399 48.9485 119.104 48.8607 118.743 48.7838C118.382 48.7179 117.978 48.641 117.551 48.5531C117.125 48.4762 116.688 48.3664 116.25 48.2236C115.813 48.0918 115.419 47.9051 115.048 47.6634C114.687 47.4328 114.392 47.1142 114.173 46.7298C113.954 46.3344 113.845 45.8511 113.845 45.258C113.845 44.566 114.031 43.9399 114.425 43.3688C114.807 42.7976 115.387 42.3363 116.141 41.9738C116.906 41.6223 117.858 41.4246 118.984 41.4027C119.727 41.3807 120.471 41.4466 121.192 41.5894C121.914 41.7322 122.57 41.9628 123.149 42.2704L122.034 45.0053C121.487 44.7417 120.963 44.544 120.449 44.4232C119.935 44.3024 119.443 44.2365 118.962 44.2475C118.601 44.2475 118.317 44.2914 118.109 44.3573C117.901 44.4232 117.748 44.5111 117.661 44.6209C117.573 44.7308 117.53 44.8406 117.53 44.9724C117.53 45.1591 117.639 45.3129 117.858 45.4227C118.076 45.5326 118.371 45.6095 118.732 45.6863C119.093 45.7523 119.497 45.8181 119.935 45.895C120.372 45.9719 120.809 46.0818 121.236 46.2136C121.662 46.3564 122.067 46.5431 122.428 46.7737C122.788 47.0044 123.084 47.3229 123.302 47.7074C123.521 48.0918 123.63 48.5751 123.63 49.1572C123.63 49.8382 123.433 50.4533 123.051 51.0355ZM133.918 52.4194L124.734 52.6171V41.5235L133.71 41.3258V44.1486L128.397 44.2694V45.5655L133.065 45.4667V48.1577L128.397 48.2566V49.7174L133.918 49.5966V52.4194Z" fill="white"/>
<path d="M7.95921 19.4569L18.116 19.2373V13.3829L7.95921 13.6025V10.7687L19.5263 10.5271V4.3871L0 4.81547V28.947L19.9746 28.5076V22.3676L7.95921 22.6313V19.4569Z" fill="white"/>
<path d="M46.8806 3.78302L38.1561 3.98073L34.1765 10.1317L30.0985 4.15647L21.0023 4.35418L29.3769 16.1179L20.6961 28.4967L29.9236 28.288L33.9688 21.7526L38.1233 28.1122L47.3945 27.9035L38.5278 15.6346L46.2246 4.71665V10.1097L53.2546 9.95594V27.7827L61.3559 27.607V9.7802L68.3858 9.62642V3.3217L46.8697 3.78302H46.8806Z" fill="white"/>
<path d="M78.4442 17.9192L88.6009 17.6995V11.8341L78.4442 12.0648V9.23095L90.0113 8.97832V2.84934L70.4849 3.26672V27.3982L90.4595 26.9698V20.8299L78.4442 21.0935V17.9192Z" fill="white"/>
<path d="M109.363 13.3938L100.234 2.61869L93.5754 2.76148V26.904L101.469 26.7282V15.7554L110.598 26.5305L117.256 26.3767V2.24524L109.363 2.42098V13.3938Z" fill="white"/>
<path d="M138.685 13.0863C137.898 12.5701 137.034 12.1637 136.094 11.8671C135.154 11.5706 134.213 11.3289 133.262 11.1751C132.311 11.0104 131.447 10.8566 130.66 10.7138C129.873 10.571 129.239 10.3843 128.758 10.1536C128.277 9.92299 128.036 9.60445 128.036 9.18707C128.036 8.91247 128.135 8.65984 128.331 8.4182C128.528 8.17655 128.856 7.98983 129.304 7.84704C129.764 7.70425 130.376 7.61638 131.163 7.59441C132.213 7.57244 133.295 7.69326 134.41 7.96786C135.525 8.24246 136.673 8.65984 137.854 9.24198L140.292 3.28874C139.035 2.60775 137.613 2.10249 136.039 1.79494C134.465 1.4874 132.858 1.3446 131.24 1.37756C128.769 1.43247 126.702 1.83888 125.041 2.61873C123.379 3.3876 122.132 4.39811 121.301 5.65027C120.471 6.90243 120.044 8.26442 120.044 9.76921C120.044 11.0543 120.285 12.1198 120.766 12.9765C121.247 13.8222 121.881 14.5142 122.668 15.0195C123.455 15.5357 124.33 15.9421 125.27 16.2387C126.221 16.5353 127.162 16.7769 128.102 16.9526C129.042 17.1284 129.906 17.2931 130.693 17.4469C131.48 17.6007 132.114 17.7984 132.595 18.04C133.076 18.2817 133.317 18.6222 133.317 19.0615C133.317 19.3361 133.218 19.5778 133.011 19.7755C132.803 19.9732 132.475 20.127 132.038 20.2478C131.589 20.3576 130.977 20.4235 130.201 20.4455C128.878 20.4785 127.511 20.3027 126.101 19.9293C124.691 19.5558 123.422 19.0506 122.274 18.4135L119.662 24.3997C120.875 25.1136 122.417 25.6738 124.297 26.0912C126.178 26.5086 128.113 26.6953 130.135 26.6514C132.628 26.5965 134.694 26.1791 136.345 25.3992C137.996 24.6194 139.232 23.5979 140.073 22.3567C140.904 21.1045 141.32 19.7535 141.32 18.2817C141.32 17.0185 141.079 15.9641 140.598 15.1293C140.117 14.2946 139.483 13.6136 138.696 13.1083L138.685 13.0863Z" fill="white"/>
<path d="M143.714 25.8056L151.804 25.6298V1.49834L143.714 1.67409V25.8056Z" fill="white"/>
<path d="M173.43 1.02608L167.548 15.2282L161.83 1.2787L153.116 1.46543L163.273 25.3773L171.232 25.2015L181.389 0.850336L173.43 1.02608Z" fill="white"/>
<path d="M206.972 7.29782C206.294 5.78205 205.354 4.47497 204.141 3.36561C202.927 2.25624 201.495 1.41048 199.855 0.817352C198.204 0.235209 196.4 -0.0393867 194.432 0.00454865C192.486 0.048484 190.682 0.399968 189.031 1.04801C187.369 1.70704 185.937 2.6187 184.724 3.78299C183.51 4.94728 182.57 6.29829 181.892 7.84701C181.214 9.39573 180.875 11.0872 180.875 12.9215C180.875 14.7558 181.214 16.4034 181.892 17.9302C182.57 19.4569 183.51 20.775 184.724 21.8844C185.937 22.9937 187.369 23.8395 189.031 24.4216C190.693 25.0038 192.497 25.2784 194.476 25.2344C196.422 25.1905 198.215 24.839 199.866 24.18C201.517 23.5209 202.938 22.6093 204.152 21.445C205.365 20.2807 206.305 18.9187 206.983 17.37C207.661 15.8103 208 14.1298 208 12.3174C208 10.5051 207.661 8.80261 206.983 7.28684L206.972 7.29782ZM199.407 15.0524C199.133 15.8103 198.751 16.4474 198.259 16.9746C197.767 17.5018 197.198 17.9082 196.542 18.2048C195.886 18.4903 195.187 18.6441 194.432 18.6661C193.678 18.6771 192.978 18.5563 192.322 18.3036C191.666 18.04 191.098 17.6556 190.606 17.1503C190.114 16.6451 189.731 16.019 189.458 15.2831C189.184 14.5472 189.042 13.7014 189.042 12.7568C189.042 11.8122 189.184 10.9664 189.458 10.2085C189.731 9.46163 190.114 8.81359 190.606 8.28636C191.098 7.75914 191.666 7.35274 192.322 7.05617C192.978 6.77059 193.678 6.61682 194.432 6.59485C195.187 6.57288 195.886 6.70469 196.542 6.95732C197.198 7.22093 197.767 7.60537 198.259 8.11062C198.751 8.61588 199.133 9.24196 199.407 9.97788C199.68 10.7138 199.822 11.5595 199.822 12.5042C199.822 13.4488 199.691 14.2945 199.407 15.0414V15.0524Z" fill="white"/>
</svg>
