<svg width="121" height="42" viewBox="0 0 121 42" fill="none" xmlns="http://www.w3.org/2000/svg">
<path d="M8.09945 38.3264H6.01703V39.4198H7.93322V40.122H6.01703V41.2086H8.09945V41.9096H5.32738V37.6265H8.09945V38.3276V38.3264Z" fill="#0B30E3"/>
<path d="M13.7279 39.3661C14.4636 39.5045 15.2835 39.7766 15.2228 40.7797C15.188 41.5951 14.422 41.976 13.656 41.976C13.0157 41.976 12.38 41.626 12.0835 40.9421L12.7125 40.6516C12.8967 41.0633 13.2752 41.2863 13.6683 41.2863C14.0951 41.2863 14.504 41.0988 14.5287 40.7236C14.5646 40.241 14.0963 40.114 13.5796 40.0351C12.8731 39.9253 12.161 39.5948 12.1542 38.7427C12.2014 37.9627 12.9259 37.5579 13.6616 37.5579C14.2906 37.5579 14.8836 37.8061 15.1745 38.4831L14.5523 38.761C14.3737 38.363 14.048 38.2109 13.6616 38.2109C13.2527 38.2109 12.8675 38.4042 12.8428 38.7668C12.8124 39.1419 13.2819 39.2803 13.7267 39.3649L13.7279 39.3661Z" fill="#0B30E3"/>
<path d="M22.2418 37.6254V38.3264H20.9647V41.9096H20.2762V38.3264H19.0002V37.6254H22.2418Z" fill="#0B30E3"/>
<path d="M26.8986 37.6322V40.5807C26.8986 41.0587 27.3681 41.2886 27.8297 41.2886C28.2914 41.2886 28.7676 41.0599 28.7676 40.5807V37.6322H29.4573V40.5807C29.4573 41.5174 28.6373 41.9828 27.8309 41.9828C27.0244 41.9828 26.2112 41.5174 26.2112 40.5807V37.6322H26.8986Z" fill="#0B30E3"/>
<path d="M33.8524 37.6322H35.3597C36.1785 37.6322 36.9322 38.0428 36.9322 38.9795V40.5875C36.9322 41.5174 36.1785 41.9108 35.3597 41.9108H33.8524V37.6322ZM35.3597 41.2086C35.8281 41.2086 36.2437 41.0336 36.2437 40.5864V38.9784C36.2437 38.5254 35.8281 38.3322 35.3597 38.3322H34.5342V41.2086H35.3597Z" fill="#0B30E3"/>
<path d="M42.1405 37.6322H42.8583L44.378 41.9096H43.6591L43.2491 40.798H41.7429C41.6059 41.2154 41.4992 41.4933 41.3633 41.9096H40.6264L42.1405 37.6322ZM42.6696 39.0161L42.5393 38.339H42.4561L42.3135 39.0275L41.9754 40.098H43.0144L42.6707 39.0172L42.6696 39.0161Z" fill="#0B30E3"/>
<path d="M51.6159 41.9096H50.7791L49.5211 40.2547H49.0168V41.9096H48.3283V37.6322H49.9547C50.7791 37.6322 51.4025 38.0131 51.4272 38.9555C51.4272 39.7584 50.9577 40.1392 50.3164 40.2307L51.6159 41.9108V41.9096ZM49.9603 39.644C50.4343 39.644 50.7376 39.4381 50.7376 38.9612C50.7376 38.4843 50.4186 38.3207 49.9603 38.3322H49.0157V39.644H49.9603Z" fill="#0B30E3"/>
<path d="M61.3844 41.9096H60.7083V37.6322H62.3347C63.3018 37.6322 63.7881 38.3447 63.7881 39.0401C63.7881 39.7355 63.3018 40.4297 62.3403 40.4297H61.3844V41.9096ZM63.1052 39.0515C63.1052 38.6947 62.8446 38.3207 62.3336 38.3322H61.3833V39.7881H62.3336C62.8502 39.7881 63.1052 39.4072 63.1052 39.0515Z" fill="#0B30E3"/>
<path d="M68.5337 37.6322H69.2514L70.7711 41.9096H70.0523L69.6423 40.798H68.1361C67.999 41.2154 67.8923 41.4933 67.7564 41.9096H67.0196L68.5337 37.6322ZM69.0627 39.0161L68.9324 38.339H68.8493L68.7067 39.0275L68.3686 40.098H69.4075L69.0638 39.0172L69.0627 39.0161Z" fill="#0B30E3"/>
<path d="M78.0091 41.9096H77.1723L75.9143 40.2547H75.41V41.9096H74.7214V37.6322H76.3467C77.1723 37.6322 77.7945 38.0131 77.8192 38.9555C77.8192 39.7584 77.3497 40.1392 76.7095 40.2307L78.0091 41.9108V41.9096ZM76.3523 39.644C76.8274 39.644 77.1296 39.4381 77.1296 38.9612C77.1296 38.4843 76.8084 38.3207 76.3523 38.3322H75.4088V39.644H76.3523Z" fill="#0B30E3"/>
<path d="M83.1522 37.6322H83.87L85.3897 41.9096H84.6708L84.2608 40.798H82.7535C82.6176 41.2154 82.5109 41.4933 82.3738 41.9096H81.6382L83.1522 37.6322ZM83.6801 39.0161L83.5498 38.339H83.4667L83.3252 39.0275L82.9871 40.098H84.025L83.6813 39.0172L83.6801 39.0161Z" fill="#0B30E3"/>
<path d="M95.7928 37.5407C96.6655 37.5407 97.5372 38.0291 97.5372 39.0092V40.5315C97.5372 41.5105 96.6712 42 95.7984 42C94.9257 42 94.0541 41.5105 94.0541 40.5315V39.0092C94.0541 38.0245 94.9201 37.5407 95.7928 37.5407ZM95.1166 40.5315C95.111 41.1548 96.4757 41.1548 96.4757 40.5315V39.0092C96.4701 38.3562 95.1166 38.3745 95.1166 39.0092V40.5315Z" fill="#0B30E3"/>
<path d="M102.658 37.6322H103.624L105.126 41.9096H103.987L103.714 41.0519H102.592L102.331 41.9096H101.192L102.658 37.6322ZM103.108 38.84L102.83 40.0912H103.459L103.186 38.84H103.108Z" fill="#0B30E3"/>
<path d="M111.54 39.6314C112.116 39.9276 112.187 40.4777 112.133 40.8048C112.027 41.4933 111.571 41.9096 110.638 41.9096H108.923V37.6265H110.608C111.409 37.6265 111.996 38.1217 111.974 38.9372C111.967 39.1316 111.843 39.4759 111.54 39.6325V39.6314ZM110.609 39.3055C111.126 39.3055 111.144 38.538 110.609 38.538H109.992V39.3055H110.609ZM109.992 40.0854V40.9604H110.609C111.25 40.9604 111.238 40.0854 110.609 40.0854H109.992Z" fill="#0B30E3"/>
<path d="M44.9295 15.4628C38.5957 15.9683 32.6416 18.1207 27.8455 21.5381C27.0547 19.0037 26.875 16.2371 27.4568 13.4522C29.2517 4.86415 37.5668 -0.615309 46.028 1.21346C53.449 2.81693 58.518 9.51328 58.4394 16.929C54.0274 15.6183 49.4627 15.1014 44.9283 15.4628H44.9295Z" fill="#0B30E3"/>
<path d="M57.8239 21.1744C55.5775 29.1254 47.6207 34.0639 39.5279 32.3152C35.3013 31.4014 31.8396 28.836 29.6549 25.4301C36.7615 20.0913 47.3421 17.9263 57.8239 21.1744Z" fill="#0B30E3"/>
<path d="M77.8013 23.71H82.2952V23.7077L80.0488 17.6461L77.8013 23.71Z" fill="#0B30E3"/>
<path d="M69.348 23.7077L67.1016 17.6461L64.8529 23.71H69.348V23.7077Z" fill="#0B30E3"/>
<path d="M68.719 31.1246C68.719 30.6717 69.0818 30.3011 69.5277 30.3011H71.1575C71.2013 29.2729 71.855 28.414 72.7659 28.0846V18.4238C72.3391 18.1505 72.0538 17.669 72.0538 17.1166H75.0966C75.0966 17.6701 74.8113 18.1505 74.3845 18.4238V28.0846C75.2943 28.4129 75.9491 29.2718 75.9918 30.3H77.6204C78.0663 30.3 78.4291 30.6717 78.4291 31.1246V31.844H92.0289L73.5746 0L55.1203 31.844H68.719V31.1246ZM84.0935 23.7077C83.5015 25.4084 81.9212 26.6344 80.0477 26.6344C78.1742 26.6344 76.5949 25.4072 76.0008 23.7077H76.9353L79.668 16.3309C79.7871 16.0095 80.306 16.0095 80.4251 16.3309L83.159 23.7077H84.0935ZM67.1005 13.8124C67.3341 13.8124 67.5408 13.9154 67.6901 14.0732C67.8901 13.9886 68.1046 13.8799 68.3281 13.7633C69.0268 13.4041 69.8209 12.9958 70.7419 12.9958C71.5472 12.9958 72.11 13.3081 72.4907 13.6443C72.6603 13.4522 72.8805 13.3081 73.1287 13.2269C72.8266 13.0622 72.6143 12.7499 72.6143 12.3771C72.6143 11.8373 73.5746 10.5781 73.5746 10.5781C73.5746 10.5781 74.535 11.8373 74.535 12.3771C74.535 12.7488 74.3227 13.0622 74.0194 13.2269C74.2676 13.3081 74.4867 13.4522 74.6574 13.6443C75.0393 13.3081 75.6009 12.9958 76.4051 12.9958C77.3273 12.9958 78.1191 13.4041 78.8178 13.7633C79.0413 13.8788 79.2569 13.9874 79.4569 14.0732C79.6063 13.9142 79.8129 13.8124 80.0466 13.8124C80.4981 13.8124 80.8631 14.1841 80.8631 14.645C80.8631 15.106 80.4981 15.4765 80.0466 15.4765C79.6793 15.4765 79.3805 15.226 79.2772 14.8887C79.0098 14.7846 78.7358 14.645 78.4527 14.4987C77.8338 14.1807 77.1341 13.8193 76.404 13.8193C75.6739 13.8193 75.2684 14.1498 75.0191 14.4289C75.0281 14.4998 75.0393 14.5696 75.0393 14.6428C75.0393 15.4674 74.3822 16.1364 73.5724 16.1364C72.7626 16.1364 72.1055 15.4674 72.1055 14.6428C72.1055 14.5696 72.1167 14.4987 72.1257 14.4277C71.8763 14.1475 71.4394 13.8182 70.7396 13.8182C70.0399 13.8182 69.3098 14.1796 68.6898 14.4975C68.409 14.6416 68.1338 14.7834 67.8665 14.8864C67.7632 15.2249 67.4644 15.4754 67.0982 15.4754C66.6456 15.4754 66.2805 15.1025 66.2805 14.6428C66.2805 14.183 66.6456 13.8101 67.0982 13.8101L67.1005 13.8124ZM63.0547 23.71H63.9892L66.7219 16.3331C66.841 16.0106 67.3599 16.0106 67.4801 16.3331L70.2129 23.71H71.1462C70.5543 25.4084 68.974 26.6356 67.1005 26.6356C65.227 26.6356 63.6477 25.4084 63.0547 23.71Z" fill="#0B30E3"/>
<path d="M117.85 15.8997C122.693 10.458 118.101 2.08267 110.126 2.08267H94.9291V24.8628L102.213 22.3467L101.316 19.6579L100.838 19.8237C100.437 19.9632 99.9992 19.7437 99.8633 19.3354C99.7285 18.9236 99.9419 18.4799 100.345 18.3415L107.036 16.0289C107.438 15.8894 107.875 16.1101 108.011 16.5196C108.148 16.929 107.934 17.3728 107.531 17.5123L107.053 17.677L109.524 25.0927L110.003 24.9292C110.404 24.7896 110.842 25.0081 110.977 25.4175C111.115 25.8258 110.9 26.2707 110.496 26.4103L103.806 28.7251C103.403 28.8624 102.967 28.6439 102.83 28.2345C102.693 27.8239 102.909 27.3813 103.31 27.2406L103.788 27.0747L102.953 24.5723L94.992 27.3229C94.9717 27.3309 94.9504 27.3321 94.9291 27.3378V31.844H102.337C102.079 31.6507 101.91 31.3419 101.91 30.9908C101.91 30.4029 102.377 29.9283 102.953 29.9283H112.603C113.18 29.9283 113.647 30.4041 113.647 30.9908C113.647 31.0823 113.633 31.1703 113.61 31.255C121.05 28.9275 123.606 20.2229 117.852 15.9008L117.85 15.8997Z" fill="#0B30E3"/>
<path d="M12.1969 21.7771C11.8487 21.7771 11.5657 21.4889 11.5657 21.1332C11.5657 20.7775 11.8487 20.4905 12.1969 20.4905H24.2164V17.5615H12.1969C11.8487 17.5615 11.5657 17.2733 11.5657 16.9187C11.5657 16.5642 11.8487 16.276 12.1969 16.276H24.2164V13.3481H12.1969C11.8487 13.3481 11.5657 13.0587 11.5657 12.703C11.5657 12.3474 11.8487 12.0603 12.1969 12.0603H24.2164V2.0415H0V31.8016H24.2152V21.7771H12.1969ZM10.2145 21.7749C9.86514 21.7749 9.58321 21.4889 9.58321 21.1321C9.58321 20.7753 9.86514 20.4905 10.2145 20.4905C10.5638 20.4905 10.8446 20.7775 10.8446 21.1321C10.8446 21.4866 10.5627 21.7749 10.2145 21.7749ZM10.2145 17.5615C9.86514 17.5615 9.58321 17.2744 9.58321 16.9187C9.58321 16.563 9.86514 16.2771 10.2145 16.2771C10.5638 16.2771 10.8446 16.5642 10.8446 16.9187C10.8446 17.2733 10.5627 17.5615 10.2145 17.5615ZM10.2145 13.3481C9.86514 13.3481 9.58321 13.061 9.58321 12.7053C9.58321 12.3496 9.86514 12.0626 10.2145 12.0626C10.5638 12.0626 10.8446 12.3508 10.8446 12.7053C10.8446 13.0599 10.5627 13.3481 10.2145 13.3481Z" fill="#0B30E3"/>
</svg>
