<svg width="283" height="42" viewBox="0 0 283 42" fill="none" xmlns="http://www.w3.org/2000/svg">
<g clip-path="url(#clip0_434_2496)">
<path d="M15.6336 4.47607C24.2584 4.47607 31.299 11.6271 31.299 20.3273V21.4744C31.299 30.1692 24.2637 37.2934 15.6336 37.2934C7.00361 37.2934 0 30.1692 0 21.4744V20.3273C0 11.6324 7.0354 4.47607 15.6336 4.47607ZM15.6336 11.7289C10.961 11.7289 7.13606 15.5992 7.13606 20.3273V21.4744C7.13606 26.2024 10.961 30.0728 15.6336 30.0728C20.3062 30.0728 24.1312 26.2024 24.1312 21.4744V20.3273C24.1312 15.5992 20.3062 11.7289 15.6336 11.7289Z" fill="white"/>
<path d="M46.5033 20.1611L43.3247 26.3954L38.8481 35.0259L37.6826 37.2881H29.6406L30.8061 35.0259L31.4207 33.8091L34.5357 27.8052L42.4823 12.3186L46.5033 4.47607L50.5561 12.3186L58.5027 27.8052L61.586 33.8091L62.2323 35.0259L63.3978 37.2881H55.3241L54.1586 35.0259H43.5843L46.1802 27.8052H50.429L46.5033 20.1611Z" fill="white"/>
<path d="M93.4936 20.8848C94.3678 21.9354 95.0194 23.1844 95.4061 24.5299C95.6657 25.4144 95.7929 26.3364 95.7929 27.2853C95.7929 32.8013 91.348 37.2934 85.902 37.2934H65.6328V4.47607H84.3444C89.7905 4.47607 94.2671 9.00575 94.2671 14.5164C94.2671 15.4706 94.1029 16.3872 93.8804 17.2717C93.589 18.2581 93.1652 19.1426 92.646 19.9627C92.9374 20.2576 93.2287 20.5846 93.4883 20.8794L93.4936 20.8848ZM72.8007 17.2771V30.0781H85.902C87.3959 30.0781 88.625 28.7969 88.625 27.2906C88.625 25.7843 87.3906 24.5353 85.902 24.5353H75.4919L78.0878 17.2825H84.3444C85.8384 17.2825 87.0993 16.0334 87.0993 14.5271C87.0993 13.0208 85.8331 11.7396 84.3444 11.7396H72.8007V17.2878V17.2771Z" fill="white"/>
<path d="M178.381 37.2934V4.47607H193.464C201.733 4.47607 208.514 11.3698 208.514 19.7376V22.0694C208.514 30.4373 201.739 37.2988 193.464 37.2988H178.381V37.2934ZM201.373 19.7376C201.373 15.3419 197.771 11.7289 193.458 11.7289H185.512V30.0728H193.458C197.771 30.0728 201.373 26.4276 201.373 22.0641V19.7322V19.7376Z" fill="white"/>
<path d="M217.88 4.47607V37.2934H210.744V4.47607H217.88Z" fill="white"/>
<path d="M236.978 20.1611L233.799 26.3954L229.323 35.0259L228.157 37.2881H220.115L221.281 35.0259L221.895 33.8091L225.01 27.8052L232.957 12.3186L236.978 4.47607L241.031 12.3186L248.977 27.8052L252.061 33.8091L252.707 35.0259L253.872 37.2881H245.799L244.633 35.0259H234.059L236.655 27.8052H240.904L236.978 20.1611Z" fill="white"/>
<path d="M260.071 27.8428C260.299 29.0918 261.433 30.0728 262.731 30.0728H273.109C274.635 30.0728 275.864 28.8238 275.864 27.2853C275.864 25.7468 274.629 24.5299 273.109 24.5299H262.731C261.788 24.5299 260.882 24.3638 260.008 24.1333C258.095 23.5758 256.405 22.4286 255.144 20.8848C254.27 19.8663 253.619 18.6226 253.232 17.2771C253.004 16.3926 252.877 15.4706 252.877 14.5218C252.877 9.95994 255.891 6.08961 260.013 4.90493C260.887 4.64226 261.798 4.48145 262.736 4.48145H273.114C278.401 4.48145 282.714 8.71629 283.005 13.9643H275.806C275.546 12.7153 274.444 11.7343 273.114 11.7343H262.736C261.242 11.7343 260.013 12.9833 260.013 14.5218C260.013 16.0603 261.247 17.2771 262.736 17.2771H273.114C276.161 17.2771 278.889 18.6869 280.738 20.8848C281.58 21.9354 282.232 23.1844 282.618 24.5299C282.878 25.4144 283.005 26.3365 283.005 27.2853C283.005 32.8013 278.56 37.2934 273.114 37.2934H262.736C261.793 37.2934 260.887 37.1594 260.013 36.9021C256.056 35.755 253.105 32.1419 252.877 27.8428H260.077H260.071Z" fill="white"/>
<path d="M125.694 2.20855C122.838 0.739757 119.522 0 115.739 0C112.751 0 110.039 0.57358 107.602 1.72074C105.165 2.8679 103.226 4.49215 101.785 6.59885C100.349 8.70555 99.6289 11.1875 99.6289 14.0554C99.6289 16.6606 100.265 18.9281 101.531 20.8526C102.797 22.7877 104.46 24.278 106.521 25.3287C108.582 26.3793 110.823 26.9047 113.244 26.9047C115.093 26.9047 116.719 26.6688 118.118 26.1863C119.231 25.8057 120.227 25.2858 121.111 24.6425C120.767 26.4597 120.052 27.9392 118.944 29.0596C117.334 30.6839 115.188 31.4987 112.508 31.4987C111.257 31.4987 110.039 31.3539 108.847 31.0698C107.655 30.7803 106.474 30.2175 105.303 29.3759L100.487 38.848C101.997 39.8451 103.841 40.617 106.018 41.1691C108.19 41.7266 110.447 42.0054 112.794 42.0054C117.18 42.0054 121.016 41.1209 124.306 39.3626C127.59 37.6043 130.16 35.0688 132.019 31.7613C133.868 28.4539 134.795 24.4442 134.795 19.7429C134.795 15.3419 133.99 11.6914 132.385 8.78596C130.774 5.87518 128.544 3.68807 125.694 2.21391V2.20855ZM120.221 15.6046C119.882 16.2157 119.4 16.6982 118.775 17.0359C118.15 17.3789 117.44 17.5558 116.645 17.5558C115.474 17.5558 114.5 17.1806 113.726 16.4355C112.953 15.6904 112.561 14.6879 112.561 13.4228C112.561 12.5812 112.741 11.8522 113.101 11.2411C113.461 10.63 113.943 10.1636 114.547 9.83663C115.151 9.515 115.856 9.34882 116.645 9.34882C117.435 9.34882 118.145 9.50964 118.775 9.83663C119.4 10.1636 119.877 10.63 120.221 11.2411C120.566 11.8522 120.735 12.5812 120.735 13.4228C120.735 14.2645 120.566 14.9935 120.221 15.6046Z" fill="white"/>
<path d="M170.349 9.63829C168.818 6.50772 166.704 4.11155 163.997 2.46586C161.295 0.820166 158.18 0 154.668 0C151.156 0 148.041 0.820166 145.339 2.46586C142.637 4.11155 140.523 6.50236 138.987 9.63829C137.456 12.7742 136.688 16.5641 136.688 20.9973C136.688 25.4305 137.456 29.2258 138.987 32.3563C140.518 35.4923 142.632 37.8831 145.339 39.5288C148.041 41.1745 151.15 42 154.668 42C158.186 42 161.295 41.1745 163.997 39.5288C166.699 37.8831 168.813 35.4923 170.349 32.3563C171.88 29.2258 172.649 25.4359 172.649 20.9973C172.649 16.5588 171.88 12.7742 170.349 9.63829ZM158.61 27.0816C158.212 28.5718 157.677 29.6278 156.994 30.2389C156.31 30.85 155.537 31.1556 154.668 31.1556C153.799 31.1556 153.026 30.85 152.342 30.2389C151.659 29.6278 151.124 28.5718 150.727 27.0816C150.329 25.586 150.138 23.5597 150.138 20.9973C150.138 18.435 150.334 16.3604 150.727 14.8916C151.124 13.4175 151.659 12.3722 152.342 11.7611C153.026 11.15 153.799 10.8391 154.668 10.8391C155.537 10.8391 156.31 11.1446 156.994 11.7611C157.677 12.3775 158.212 13.4121 158.61 14.8916C159.007 16.3604 159.208 18.3974 159.208 20.9973C159.208 23.5972 159.007 25.586 158.61 27.0816Z" fill="white"/>
</g>
<defs>
<clipPath id="clip0_434_2496">
<rect width="283" height="42" fill="white"/>
</clipPath>
</defs>
</svg>
