<svg width="22" height="15" viewBox="0 0 22 15" fill="none" xmlns="http://www.w3.org/2000/svg">
<g clip-path="url(#clip0_427_896)">
<path d="M19.9539 14.8535H1.81521C1.44516 14.8535 1.09026 14.7019 0.828592 14.4321C0.566925 14.1622 0.419922 13.7962 0.419922 13.4146L0.419922 7.36169H1.42511L1.65184 6.79573H2.15938L2.38553 7.3593H4.36335V6.93063L4.54009 7.36229H5.56678L5.74352 6.92343V7.3611H10.6578V6.43541H10.7509C10.8171 6.43781 10.8363 6.4438 10.8363 6.55772V7.36229H13.3786V7.14706C13.6385 7.28316 13.9449 7.36289 14.2699 7.36289L14.3251 7.36229H14.3222H15.3919L15.621 6.79873H16.1285L16.3523 7.36229H18.4139V6.82631L18.7255 7.36229H20.3743V3.82263H18.7424V4.24051L18.5139 3.82263H16.836V4.24051L16.6262 3.82263H14.3606C14.0173 3.80474 13.6753 3.87759 13.367 4.03426L13.3792 4.02887V3.82263H11.8165V4.02887C11.6273 3.87512 11.3884 3.80157 11.1485 3.82323H11.152H5.44121L5.05809 4.73752L4.6645 3.82323H2.86574V4.2411L2.6675 3.82323H1.13268L0.421666 5.50193V1.90471C0.421666 1.52309 0.568669 1.15711 0.830336 0.887261C1.092 0.617417 1.4469 0.46582 1.81695 0.46582H19.9557C20.3257 0.46582 20.6806 0.617417 20.9423 0.887261C21.204 1.15711 21.351 1.52309 21.351 1.90471V8.18786H20.2621C20.2446 8.18666 20.2237 8.18666 20.2033 8.18666C19.951 8.18666 19.7167 8.2646 19.5214 8.39829L19.526 8.3953V8.18786H17.9156C17.6641 8.17352 17.4151 8.24725 17.2093 8.3971L17.2128 8.3947V8.18726H14.3373V8.3947C14.1019 8.2578 13.8361 8.18632 13.5658 8.18726H13.5432H13.5443H11.6473V8.3947C11.3995 8.23098 11.1054 8.15812 10.8125 8.18786L10.8177 8.18726H8.69513L8.20911 8.72924L7.75448 8.18726H4.58369V11.7293H7.69518L8.19574 11.1789L8.66723 11.7293H10.5852V10.9002H10.8526C11.1097 10.9105 11.3662 10.8662 11.606 10.7701L11.5933 10.7749V11.7305H13.1746V10.8078H13.2507C13.3472 10.8078 13.3571 10.8114 13.3571 10.9122V11.7311H18.1627L18.2214 11.7323C18.497 11.7323 18.754 11.6472 18.9679 11.5015L18.9627 11.5045V11.7311H20.487L20.5597 11.7323C20.8452 11.7323 21.1167 11.6718 21.3632 11.5621L21.3498 11.5674V13.4152C21.3498 13.7968 21.2028 14.1628 20.9411 14.4327C20.6795 14.7025 20.3246 14.8541 19.9545 14.8541L19.9539 14.8535ZM12.6897 11.2329H12.0979V8.69387H13.456C13.7012 8.67042 13.9482 8.71297 14.1728 8.81737L14.1635 8.81377C14.3455 8.91689 14.467 9.11354 14.467 9.33897L14.4658 9.37914V9.37734L14.4664 9.40012C14.4664 9.6915 14.296 9.9421 14.0519 10.0512L14.0472 10.053C14.1641 10.0962 14.2617 10.1699 14.3344 10.2653L14.3356 10.2665C14.4177 10.4066 14.452 10.5709 14.4332 10.7335L14.4338 10.7299V11.2323H13.8432V10.9146C13.8711 10.7415 13.8375 10.564 13.7484 10.4145L13.7501 10.4175C13.6888 10.3695 13.6186 10.3348 13.5438 10.3155C13.4691 10.2963 13.3913 10.2928 13.3153 10.3054L13.3188 10.3048H12.6897V11.2323V11.2329ZM12.6897 9.21846V9.78862H13.4048C13.5058 9.79824 13.6074 9.7796 13.699 9.73466L13.6955 9.73646C13.7329 9.71155 13.7637 9.67738 13.785 9.63706C13.8063 9.59674 13.8175 9.55156 13.8176 9.50564L13.817 9.49185V9.49245C13.8199 9.44663 13.8101 9.4009 13.7888 9.36057C13.7675 9.32025 13.7355 9.28698 13.6967 9.26463L13.6955 9.26403C13.6073 9.22334 13.5103 9.20681 13.4141 9.21606H13.4164L12.6897 9.21846ZM7.44286 11.2323H5.11332V8.69387H7.47949L8.20329 9.52602L8.95152 8.69387H10.8311C11.4985 8.69387 11.8229 8.96785 11.8229 9.53022C11.8229 10.1028 11.4874 10.381 10.7997 10.381H10.0643V11.2317H8.9207L8.19632 10.393L7.44344 11.2323H7.44286ZM9.47824 8.96606L8.57479 9.96728L9.47824 11.0009V8.96606ZM5.69992 10.1981V10.7029H7.14636L7.81494 9.95829L7.17195 9.21846H5.69934V9.68011H6.99114V10.1975L5.69992 10.1981ZM10.0643 9.21906V9.86536H10.8241C11.0567 9.86536 11.1904 9.74306 11.1904 9.52962C11.1904 9.32578 11.066 9.21846 10.8305 9.21846L10.0643 9.21906ZM20.551 11.2335H19.415V10.6879H20.5463C20.631 10.7 20.7168 10.6771 20.7853 10.6244L20.7847 10.625C20.8065 10.6041 20.824 10.5788 20.8359 10.5506C20.8478 10.5224 20.8539 10.492 20.8539 10.4613V10.4517C20.8539 10.4214 20.8476 10.3914 20.8352 10.3638C20.8229 10.3363 20.8048 10.3119 20.7824 10.2922C20.7222 10.2474 20.648 10.2273 20.5743 10.2359H20.5754L20.4667 10.2323C19.9353 10.2179 19.3336 10.2011 19.3336 9.44988C19.3336 9.08417 19.5557 8.69387 20.1772 8.69387H21.3498V9.23465H20.2772C20.1943 9.22509 20.1106 9.24226 20.0376 9.28381L20.04 9.28261C20.0113 9.30209 19.9882 9.32919 19.9731 9.36105C19.9581 9.39291 19.9517 9.42836 19.9545 9.46367V9.46307V9.46967C19.9545 9.51007 19.9669 9.54943 19.9898 9.58216C20.0128 9.61489 20.0452 9.6393 20.0824 9.65193L20.0836 9.65253C20.1573 9.67596 20.2345 9.68571 20.3115 9.6813H20.3097L20.6289 9.6897C20.8695 9.66494 21.1099 9.73881 21.2981 9.89534L21.2963 9.89414C21.3138 9.90853 21.3289 9.92412 21.3422 9.9415L21.3428 9.9421L21.3498 10.9086C21.252 11.0264 21.1277 11.1176 20.9876 11.1741C20.8476 11.2307 20.6963 11.2509 20.5469 11.2329L20.551 11.2335ZM18.2552 11.2335H17.1087V10.6879H18.2494C18.3347 10.6994 18.4211 10.6767 18.4906 10.6244L18.4895 10.625C18.5112 10.604 18.5285 10.5787 18.5403 10.5505C18.5521 10.5223 18.5581 10.492 18.5581 10.4613V10.4553C18.558 10.4244 18.5516 10.394 18.5393 10.3658C18.527 10.3377 18.509 10.3126 18.4866 10.2922C18.4253 10.2473 18.3502 10.2273 18.2755 10.2359H18.2767L18.1685 10.2323C17.6389 10.2179 17.0378 10.2011 17.0378 9.44988C17.0378 9.08417 17.2587 8.69387 17.879 8.69387H19.058V9.23465H17.979C17.8967 9.22519 17.8136 9.24237 17.7412 9.28381L17.7436 9.28261C17.713 9.30428 17.6887 9.33406 17.6732 9.3688C17.6578 9.40353 17.6517 9.44194 17.6556 9.47995C17.6595 9.51797 17.6733 9.55418 17.6956 9.58477C17.7178 9.61536 17.7477 9.63918 17.7819 9.65372L17.7831 9.65432C17.8578 9.67794 17.9359 9.68769 18.0139 9.6831H18.0122L18.329 9.6915C18.5709 9.66746 18.8123 9.74143 19.0022 9.89774L19.0005 9.89594C19.0644 9.96857 19.113 10.0541 19.1432 10.147C19.1734 10.24 19.1846 10.3385 19.1761 10.4361V10.4331C19.1778 10.9625 18.8668 11.2323 18.2534 11.2323L18.2552 11.2335ZM16.7564 11.2335H14.7914V8.69327H16.7547V9.21786H15.3786V9.67951H16.7227V10.1969H15.3786V10.7017L16.7564 10.7041V11.2317V11.2335ZM17.9017 6.86528H16.7035L16.4744 6.29932H15.2524L15.0303 6.86528H14.342C14.0328 6.88209 13.7284 6.78164 13.4862 6.5829L13.4891 6.5847C13.374 6.4537 13.2867 6.29942 13.2326 6.13168C13.1786 5.96394 13.159 5.78642 13.1752 5.61045L13.1746 5.61524C13.1596 5.43603 13.1801 5.25555 13.2349 5.08477C13.2897 4.91399 13.3775 4.75648 13.4932 4.62181L13.492 4.62301C13.6141 4.51293 13.7568 4.42993 13.9114 4.37918C14.0659 4.32844 14.2289 4.31103 14.3902 4.32804L14.3856 4.32744H14.9553V4.86882H14.3972C14.3155 4.85797 14.2326 4.86583 14.1542 4.89184C14.0758 4.91785 14.0039 4.96138 13.9437 5.0193L13.9443 5.0187C13.82 5.18286 13.7597 5.38899 13.7751 5.59666V5.59366C13.7566 5.80702 13.8147 6.01996 13.9385 6.192L13.9368 6.1896C14.0523 6.287 14.2003 6.33391 14.3489 6.3203H14.3466H14.6106L15.4425 4.32384H16.3262L17.3221 6.72199V4.32384H18.218L19.2516 6.09128V4.32384H19.8563V6.86108H19.0168L17.9005 4.95575V6.86108L17.9017 6.86528ZM15.8675 4.75611L15.4623 5.76813H16.2744L15.8675 4.75611ZM10.1706 6.86408H9.5823V4.32564H10.9357C11.1828 4.2992 11.4322 4.34251 11.6572 4.45094L11.6485 4.44735C11.739 4.49895 11.8144 4.57459 11.867 4.66642C11.9195 4.75825 11.9472 4.86292 11.9473 4.96954L11.9461 5.01151V5.00971V5.0283C11.9462 5.16676 11.9075 5.3023 11.8347 5.41864C11.7619 5.53498 11.6581 5.62719 11.5357 5.68419L11.5311 5.68599C11.6479 5.73155 11.7462 5.8047 11.8212 5.89823L11.8223 5.89942C11.9053 6.04006 11.9395 6.20556 11.9194 6.36886L11.92 6.36526V6.86348H11.3264L11.3241 6.54333V6.49536C11.3452 6.33882 11.3116 6.17964 11.2293 6.04631L11.2311 6.04931C11.1695 6.00266 11.0996 5.96905 11.0253 5.95042C10.9511 5.9318 10.874 5.92853 10.7985 5.94079L10.802 5.94019H10.1712V6.86348L10.1706 6.86408ZM10.1706 4.85383V5.4174H10.8846C10.9854 5.42868 11.0873 5.40996 11.1782 5.36344L11.1753 5.36464C11.2125 5.34129 11.2433 5.30846 11.2647 5.26929C11.286 5.23013 11.2973 5.18595 11.2973 5.14101L11.2968 5.12422V5.12482C11.2997 5.07927 11.2897 5.03382 11.2679 4.99408C11.2461 4.95434 11.2135 4.92205 11.1741 4.9012L11.1729 4.9006C11.0845 4.86145 10.9881 4.845 10.8921 4.85263H10.8939L10.1706 4.85383ZM3.94069 6.86408H2.7454L2.51925 6.29812H1.29372L1.06582 6.86408H0.426317L1.48034 4.32564H2.35414L3.35467 6.72798V4.32564H4.31451L5.08425 6.04691L5.79177 4.32564H6.77138V6.86288H6.16676L6.16559 4.87721L5.31273 6.86348H4.79647L3.94128 4.87422V6.86348L3.94069 6.86408ZM1.90358 4.75611L1.50301 5.76813H2.30647L1.90358 4.75611ZM12.8845 6.86348H12.2845V4.32564H12.8851V6.86288L12.8845 6.86348ZM9.17185 6.86348H7.21032V4.32564H9.17534V4.85323H7.79866V5.31068H9.14221V5.83168H7.7975V6.33889H9.17418V6.86288L9.17185 6.86348Z" fill="white"/>
</g>
<defs>
<clipPath id="clip0_427_896">
<rect width="20.9293" height="14.3889" fill="white" transform="translate(0.419922 0.464844)"/>
</clipPath>
</defs>
</svg>
