<svg width="22" height="22" viewBox="0 0 22 22" fill="none" xmlns="http://www.w3.org/2000/svg">
<g clip-path="url(#clip0_11_73)">
<path d="M8.86188 17.446V10.1118H7.9915C7.36813 10.444 6.76568 10.8142 6.1875 11.22V12.1756C6.70312 11.8222 7.51987 11.3231 7.91725 11.1073H7.93375V17.446H8.86188ZM10.4954 15.6516C10.56 16.5316 11.3121 17.5849 12.837 17.5849C14.5667 17.5849 15.587 16.1191 15.587 13.6373C15.587 10.978 14.5131 9.96875 12.9016 9.96875C11.6284 9.96875 10.4307 10.8928 10.4307 12.4561C10.4307 14.0511 11.5637 14.8899 12.7352 14.8899C13.761 14.8899 14.4265 14.3729 14.6369 13.8036H14.674C14.6685 15.6131 14.0401 16.7791 12.8796 16.7791C11.9666 16.7791 11.4936 16.1604 11.4359 15.6516H10.4954ZM14.5557 12.4657C14.5557 13.4227 13.7871 14.0883 12.9278 14.0883C12.1014 14.0883 11.3548 13.5616 11.3548 12.4382C11.3548 11.3066 12.155 10.7745 12.9607 10.7745C13.8311 10.7745 14.5557 11.3217 14.5557 12.4657Z" fill="#FFD842"/>
<path d="M4.8125 0C4.99484 0 5.1697 0.0724328 5.29864 0.201364C5.42757 0.330295 5.5 0.505164 5.5 0.6875V1.375H16.5V0.6875C16.5 0.505164 16.5724 0.330295 16.7014 0.201364C16.8303 0.0724328 17.0052 0 17.1875 0C17.3698 0 17.5447 0.0724328 17.6736 0.201364C17.8026 0.330295 17.875 0.505164 17.875 0.6875V1.375H19.25C19.9793 1.375 20.6788 1.66473 21.1945 2.18046C21.7103 2.69618 22 3.39565 22 4.125V19.25C22 19.9793 21.7103 20.6788 21.1945 21.1945C20.6788 21.7103 19.9793 22 19.25 22H2.75C2.02065 22 1.32118 21.7103 0.805456 21.1945C0.289731 20.6788 0 19.9793 0 19.25V4.125C0 3.39565 0.289731 2.69618 0.805456 2.18046C1.32118 1.66473 2.02065 1.375 2.75 1.375H4.125V0.6875C4.125 0.505164 4.19743 0.330295 4.32636 0.201364C4.4553 0.0724328 4.63016 0 4.8125 0ZM2.75 2.75C2.38533 2.75 2.03559 2.89487 1.77773 3.15273C1.51987 3.41059 1.375 3.76033 1.375 4.125V19.25C1.375 19.6147 1.51987 19.9644 1.77773 20.2223C2.03559 20.4801 2.38533 20.625 2.75 20.625H19.25C19.6147 20.625 19.9644 20.4801 20.2223 20.2223C20.4801 19.9644 20.625 19.6147 20.625 19.25V4.125C20.625 3.76033 20.4801 3.41059 20.2223 3.15273C19.9644 2.89487 19.6147 2.75 19.25 2.75H2.75Z" fill="#FED32D"/>
<path d="M3.4375 5.5C3.4375 5.31766 3.50993 5.1428 3.63886 5.01386C3.7678 4.88493 3.94266 4.8125 4.125 4.8125H17.875C18.0573 4.8125 18.2322 4.88493 18.3611 5.01386C18.4901 5.1428 18.5625 5.31766 18.5625 5.5V6.875C18.5625 7.05734 18.4901 7.2322 18.3611 7.36114C18.2322 7.49007 18.0573 7.5625 17.875 7.5625H4.125C3.94266 7.5625 3.7678 7.49007 3.63886 7.36114C3.50993 7.2322 3.4375 7.05734 3.4375 6.875V5.5Z" fill="#FED32D"/>
</g>
<defs>
<clipPath id="clip0_11_73">
<rect width="22" height="22" fill="white"/>
</clipPath>
</defs>
</svg>
