<svg width="553" height="347" viewBox="0 0 553 347" fill="none" xmlns="http://www.w3.org/2000/svg">
<g clip-path="url(#clip0_427_965)">
<path d="M93.8418 343.992C117.063 328.327 122.732 298.69 122.232 271.969C122.149 267.503 122.707 262.81 120.648 258.874C118.58 254.931 113.661 252.184 109.634 254.004C106.29 255.512 104.781 259.338 102.88 262.498C100.345 266.694 96.6099 270.149 92.2409 272.332C89.3727 273.764 85.8374 274.607 83.0526 273.023C79.2255 270.84 78.8587 265.523 78.9504 261.091C79.1255 252.824 79.3089 244.566 79.484 236.299C79.584 231.867 79.6674 227.342 78.3417 223.112C77.0243 218.882 74.031 214.93 69.8204 213.682C65.6098 212.435 60.3403 214.795 59.3814 219.118C58.9812 220.921 59.3231 222.8 59.173 224.637C59.0229 226.474 58.1307 228.496 56.3715 228.985C54.5872 229.474 52.8279 228.193 51.5188 226.879C46.9997 222.328 43.9731 216.514 41.1549 210.733C38.3283 204.952 35.6018 199.037 31.508 194.091C27.4224 189.144 21.7193 185.184 15.3575 184.729C8.99575 184.273 2.15036 188.091 0.449442 194.301C-1.25982 200.528 2.30045 206.924 6.20256 212.048C11.989 219.648 18.8678 226.39 26.5636 232.002C27.9477 233.013 29.4485 234.109 29.9655 235.76C30.8826 238.726 28.0311 241.625 25.0878 242.552C21.7527 243.605 18.1674 243.201 14.6905 243.563C11.2136 243.917 7.43657 245.383 6.0775 248.636C4.1848 253.144 7.91182 257.947 11.6055 261.116C19.0012 267.461 27.4724 272.509 36.544 275.98C39.7958 277.228 43.2226 278.323 45.8241 280.657C48.4255 282.991 49.9596 287.002 48.3171 290.095C46.6745 293.196 42.5723 294.14 39.1538 293.449C35.7353 292.766 32.7003 290.862 29.4568 289.581C23.3785 287.188 15.4826 287.491 11.4888 292.699C8.86234 296.12 8.56218 300.94 9.80452 305.086C11.0385 309.232 13.6233 312.83 16.3747 316.15C25.9883 327.762 38.3867 337.175 52.486 342.29C66.5853 347.405 79.6924 348.93 93.8585 344.009" fill="#EBEBEB"/>
<path d="M87.1138 327.164C83.3785 313.631 78.0506 299.129 71.9556 284.154C70.4214 280.413 68.8956 276.722 67.4031 273.082C65.9023 269.45 64.4098 265.852 62.7339 262.422C59.4154 255.546 55.6968 249.184 51.9781 243.26C48.2594 237.328 44.5157 231.834 40.9804 226.719C37.4285 221.612 34.035 216.91 30.7582 212.764C24.2214 204.439 18.1681 198.355 13.8407 194.344C11.6812 192.33 9.95528 190.821 8.7713 189.818C8.19599 189.33 7.74575 188.959 7.42057 188.681C7.11207 188.428 6.94531 188.31 6.94531 188.31C6.94531 188.31 7.08706 188.462 7.37888 188.731C7.69572 189.018 8.12929 189.414 8.68792 189.92C9.83855 190.964 11.5395 192.498 13.6656 194.537C17.9346 198.599 23.9129 204.717 30.3914 213.059C33.6431 217.222 37.0116 221.924 40.5385 227.039C44.0571 232.162 47.7758 237.665 51.4695 243.589C55.1631 249.513 58.8568 255.858 62.1586 262.709C63.8178 266.13 65.2936 269.703 66.8028 273.343C68.2953 276.983 69.8128 280.674 71.3553 284.407C77.4419 299.373 82.7781 313.841 86.5385 327.333" fill="#E0E0E0"/>
<path d="M62.5744 262.355C62.6161 262.355 62.7745 261.689 63.008 260.467C63.2498 259.245 63.5499 257.467 63.8918 255.259C64.5755 250.852 65.3176 244.735 66.1263 237.985C66.9351 231.235 67.7772 225.143 68.5526 220.761C68.9362 218.57 69.2614 216.8 69.5115 215.578C69.7533 214.357 69.8617 213.674 69.82 213.666C69.7783 213.657 69.5782 214.314 69.2614 215.519C68.9362 216.724 68.536 218.486 68.0941 220.677C67.1936 225.05 66.2681 231.151 65.4676 237.909C64.6755 244.6 63.9668 250.65 63.4332 255.2C63.1581 257.316 62.9329 259.077 62.7578 260.433C62.5994 261.672 62.5327 262.355 62.5827 262.363L62.5744 262.355Z" fill="#E0E0E0"/>
<path d="M5.57812 250.836C5.57812 250.836 5.77823 250.895 6.16177 250.937C6.62869 250.987 7.17899 251.038 7.85436 251.105C9.32182 251.248 11.4396 251.451 14.0577 251.788C19.2856 252.411 26.4811 253.549 34.3604 255.15C42.2397 256.768 49.3018 258.546 54.3713 259.987C56.9143 260.686 58.9487 261.318 60.3662 261.74C61.0082 261.933 61.5502 262.094 61.9921 262.22C62.3673 262.321 62.5674 262.363 62.5757 262.346C62.5757 262.321 62.4006 262.237 62.0338 262.094C61.6002 261.925 61.0749 261.731 60.4412 261.495C59.0488 260.99 57.031 260.299 54.4963 259.532C49.4436 257.973 42.3814 256.119 34.4855 254.493C26.5895 252.883 19.3606 251.822 14.1078 251.316C11.4813 251.038 9.34684 250.911 7.87104 250.844C7.19567 250.827 6.63703 250.81 6.17011 250.793C5.77823 250.793 5.57812 250.793 5.57812 250.827V250.836Z" fill="#E0E0E0"/>
<path d="M86.496 326.085C86.496 326.085 86.6461 325.858 86.8795 325.386C87.138 324.855 87.4715 324.172 87.8801 323.33C88.7389 321.543 89.9228 318.931 91.3403 315.678C94.1835 309.181 97.8438 300.089 101.754 290.011C105.665 279.924 109.25 270.815 111.985 264.284C113.336 261.082 114.444 258.461 115.253 256.557C115.612 255.698 115.904 254.998 116.137 254.45C116.329 253.97 116.429 253.709 116.404 253.7C116.387 253.692 116.254 253.928 116.012 254.4C115.754 254.931 115.42 255.613 115.011 256.456C114.153 258.242 112.969 260.855 111.551 264.107C108.708 270.604 105.048 279.697 101.137 289.783C97.2268 299.87 93.6415 308.971 90.915 315.51C89.5643 318.712 88.4554 321.333 87.6466 323.237C87.2881 324.096 86.9962 324.796 86.7628 325.344C86.571 325.824 86.471 326.085 86.496 326.094V326.085Z" fill="#E0E0E0"/>
<path d="M10.9141 300.519C10.9141 300.519 11.1642 300.645 11.6645 300.822C12.2314 301.016 12.9652 301.269 13.8657 301.58C15.8584 302.254 18.6099 303.181 21.9701 304.311C28.8071 306.619 38.2122 309.931 48.5928 313.614C58.9818 317.296 68.4119 320.54 75.299 322.74C78.7425 323.843 81.5274 324.703 83.4701 325.268C84.3873 325.529 85.1293 325.739 85.7046 325.908C86.2216 326.043 86.4884 326.11 86.4967 326.085C86.4967 326.06 86.2466 325.959 85.7463 325.782C85.1794 325.588 84.454 325.335 83.5451 325.023C81.5524 324.349 78.8092 323.431 75.4407 322.293C68.6037 319.984 59.1986 316.672 48.8096 312.982C38.429 309.299 28.9905 306.055 22.1118 303.855C18.6683 302.752 15.8834 301.892 13.9407 301.328C13.0235 301.066 12.2815 300.856 11.7062 300.687C11.1892 300.552 10.9224 300.485 10.9141 300.51V300.519Z" fill="#E0E0E0"/>
<path d="M451.085 172.278L424.059 241.726L526 282.247L553.027 212.799L451.085 172.278Z" fill="#EBEBEB"/>
<path d="M552.998 213.733C552.998 213.733 552.556 213.952 551.689 214.281C550.73 214.626 549.455 215.09 547.87 215.663C544.435 216.859 539.649 218.536 533.763 220.584C521.723 224.687 505.247 230.291 486.987 236.51L486.604 236.645L486.404 236.291C486.245 236.021 486.079 235.726 485.912 235.431C476.24 218.334 467.485 202.863 461.082 191.546C457.988 185.976 455.462 181.442 453.653 178.189C452.836 176.673 452.177 175.451 451.677 174.532C451.235 173.69 451.018 173.243 451.043 173.226C451.068 173.209 451.351 173.622 451.843 174.431C452.385 175.324 453.094 176.512 453.978 177.996C455.854 181.206 458.472 185.689 461.682 191.192C468.152 202.466 476.99 217.887 486.762 234.934C486.929 235.229 487.096 235.524 487.254 235.794L486.662 235.566C504.956 229.465 521.464 223.946 533.529 219.926C539.458 217.997 544.277 216.429 547.737 215.3C549.346 214.795 550.639 214.399 551.614 214.095C552.506 213.826 552.973 213.708 552.99 213.741L552.998 213.733Z" fill="#E0E0E0"/>
<path d="M424.029 242.67C423.895 242.426 435.268 235.954 449.417 228.21C463.575 220.466 475.156 214.39 475.29 214.635C475.423 214.879 464.05 221.351 449.893 229.095C435.743 236.83 424.154 242.914 424.029 242.67Z" fill="#E0E0E0"/>
<path d="M509.517 227.232C509.784 227.156 513.678 239.611 518.222 255.057C522.766 270.511 526.243 283.092 525.976 283.177C525.71 283.252 521.816 270.798 517.272 255.343C512.728 239.897 509.259 227.308 509.517 227.232Z" fill="#E0E0E0"/>
<path d="M526.88 82.4503L466.801 108.889L484.433 149.814L544.512 123.375L526.88 82.4503Z" fill="#EBEBEB"/>
<path d="M527.277 82.8168C527.277 82.8168 527.186 83.0949 526.952 83.6089C526.694 84.1651 526.344 84.9066 525.918 85.8251C524.968 87.7969 523.642 90.5525 522.016 93.94C518.639 100.825 514.02 110.237 508.901 120.669L508.792 120.888L508.559 120.821C508.375 120.77 508.184 120.72 507.992 120.669C496.744 117.577 486.564 114.771 479.118 112.723C475.474 111.695 472.514 110.852 470.388 110.245C469.404 109.951 468.621 109.723 468.02 109.546C467.478 109.378 467.203 109.285 467.203 109.26C467.203 109.243 467.503 109.302 468.045 109.428C468.646 109.58 469.446 109.774 470.438 110.018C472.573 110.574 475.558 111.349 479.218 112.31C486.672 114.316 496.869 117.054 508.134 120.088C508.325 120.138 508.526 120.197 508.701 120.239L508.359 120.391C513.537 109.993 518.214 100.597 521.633 93.7377C523.334 90.3923 524.718 87.6621 525.71 85.7071C526.177 84.8055 526.56 84.0892 526.844 83.5415C527.111 83.0528 527.252 82.7915 527.277 82.8084V82.8168Z" fill="#E0E0E0"/>
<path d="M484.829 150.188C484.67 150.137 486.771 142.545 489.523 133.216C492.274 123.888 494.626 116.372 494.784 116.414C494.943 116.464 492.841 124.057 490.09 133.385C487.338 142.705 484.987 150.23 484.829 150.179V150.188Z" fill="#E0E0E0"/>
<path d="M514.536 107.111C514.611 106.967 521.482 110.565 529.861 115.158C538.249 119.751 544.986 123.593 544.911 123.736C544.836 123.88 537.974 120.281 529.578 115.689C521.19 111.096 514.453 107.254 514.528 107.111H514.536Z" fill="#E0E0E0"/>
<path d="M542.612 344.371C542.612 344.489 422.071 344.59 273.407 344.59C124.743 344.59 4.17773 344.489 4.17773 344.371C4.17773 344.253 124.693 344.152 273.407 344.152C422.121 344.152 542.612 344.253 542.612 344.371Z" fill="#263238"/>
<path d="M445.801 94.4033H101.072C94.3628 94.4033 88.9238 99.9002 88.9238 106.681V328.756C88.9238 335.537 94.3628 341.034 101.072 341.034H445.801C452.51 341.034 457.949 335.537 457.949 328.756V106.681C457.949 99.9002 452.51 94.4033 445.801 94.4033Z" fill="#263238"/>
<path d="M73.4902 322.79H473.299V329.371C473.299 337.646 466.654 344.371 458.457 344.371H88.3316C80.1438 344.371 73.4902 337.655 73.4902 329.371V322.79Z" fill="#263238"/>
<path d="M447.009 104.204H98.8281V312.476H447.009V104.204Z" fill="#455A64"/>
<path d="M237.055 322.79L242.016 330.762H311.829L316.439 322.79H237.055Z" fill="#455A64"/>
<path d="M108.726 111.248H437.822C439.331 111.248 440.548 112.487 440.548 114.004V309.046C440.548 310.571 439.323 311.802 437.822 311.802H108.726C107.217 311.802 106 310.563 106 309.046V114.012C106 112.487 107.226 111.256 108.726 111.256V111.248Z" fill="#EBEBEB"/>
<path d="M440.557 125.944H106V311.81H440.557V125.944Z" fill="#EBEBEB"/>
<path d="M133.44 118.992C133.44 120.483 132.247 121.688 130.772 121.688C129.296 121.688 128.104 120.483 128.104 118.992C128.104 117.5 129.296 116.295 130.772 116.295C132.247 116.295 133.44 117.5 133.44 118.992Z" fill="#455A64"/>
<path d="M117.248 118.992C117.248 120.483 116.056 121.688 114.58 121.688C113.104 121.688 111.912 120.483 111.912 118.992C111.912 117.5 113.113 116.295 114.58 116.295C116.048 116.295 117.248 117.5 117.248 118.992Z" fill="#455A64"/>
<path d="M125.018 118.992C125.018 120.483 123.826 121.688 122.35 121.688C120.874 121.688 119.682 120.483 119.682 118.992C119.682 117.5 120.874 116.295 122.35 116.295C123.826 116.295 125.018 117.5 125.018 118.992Z" fill="#455A64"/>
<path d="M454.772 322.79C454.772 322.925 372.87 323.035 271.856 323.035C170.843 323.035 88.9238 322.925 88.9238 322.79C88.9238 322.655 170.81 322.546 271.856 322.546C372.903 322.546 454.772 322.655 454.772 322.79Z" fill="#455A64"/>
<path d="M88.8476 325.504C88.8476 325.504 88.7475 325.453 88.5641 325.335C88.3723 325.209 88.1055 325.023 87.747 324.787C87.3884 324.543 86.9382 324.231 86.4129 323.869C85.8876 323.498 85.254 323.094 84.6036 322.546C83.9366 322.015 83.1945 321.425 82.3774 320.768C81.5686 320.102 80.7515 319.302 79.826 318.467C78.0084 316.774 76.049 314.667 74.0145 312.147C69.9873 307.1 65.8768 300.165 63.0336 291.367C60.2487 282.587 58.7062 271.986 59.5734 260.383C60.0153 254.594 60.9408 248.543 62.6834 242.442C64.401 236.341 66.8356 230.14 70.3876 224.291C71.263 222.825 72.2469 221.41 73.2725 220.002C74.3564 218.646 75.4403 217.28 76.5409 215.907C77.6999 214.584 78.9088 213.295 80.1095 211.963C81.3352 210.666 82.6609 209.452 83.9449 208.171C89.2311 203.225 95.1843 198.708 101.563 194.545C114.336 186.195 128.769 179.285 143.627 172.088C158.444 164.757 174.052 157.721 190.061 150.609C254.171 122.228 312.852 98.0606 355.592 81.2747C376.954 72.8481 394.38 66.4186 406.445 62.0115C412.481 59.8374 417.201 58.2195 420.386 57.1072C421.978 56.5595 423.196 56.1381 424.021 55.86C424.43 55.7252 424.738 55.6241 424.955 55.5483C425.163 55.4808 425.272 55.4556 425.272 55.4556C425.272 55.4556 425.172 55.5061 424.972 55.5904C424.763 55.6747 424.455 55.7842 424.054 55.9443C423.237 56.2477 422.028 56.6943 420.444 57.2757C417.267 58.4386 412.582 60.1408 406.562 62.3401C394.538 66.8399 377.146 73.3537 355.817 81.8562C313.144 98.7853 254.512 123.046 190.411 151.418C174.402 158.53 158.811 165.549 143.994 172.872C129.128 180.06 114.712 186.936 101.996 195.228C95.6429 199.365 89.723 203.84 84.4619 208.744C83.1862 210.008 81.8604 211.213 80.6431 212.494C79.4508 213.809 78.2502 215.09 77.0995 216.396C76.0073 217.761 74.9234 219.109 73.8561 220.449C72.8472 221.831 71.8717 223.221 71.0046 224.671C67.486 230.434 65.0597 236.577 63.3337 242.619C61.5828 248.67 60.6489 254.678 60.1904 260.425C59.2899 271.944 60.774 282.477 63.5005 291.216C66.277 299.963 70.3209 306.881 74.2813 311.928C76.2824 314.448 78.2168 316.563 80.0011 318.265C80.9099 319.099 81.7187 319.917 82.5191 320.582C83.3279 321.248 84.0533 321.846 84.712 322.386C85.354 322.942 85.971 323.363 86.488 323.734C87.0049 324.113 87.4468 324.425 87.797 324.686C88.1389 324.939 88.4057 325.133 88.5891 325.268C88.7642 325.403 88.8476 325.47 88.8476 325.478V325.504Z" fill="#263238"/>
<path d="M411.264 27.7234L426.697 40.6583L425.271 55.4807L437.92 48.3687L451.394 58.0424L501.613 25.4482L411.264 27.7234Z" fill="#0B30E3"/>
<g opacity="0.5">
<path d="M426.697 40.6583L500.254 25.4819L434.193 45.689L425.271 55.4807L426.697 40.6583Z" fill="black"/>
</g>
<g opacity="0.8">
<path d="M434.193 45.689L437.92 48.3686L425.271 55.4807L434.193 45.689Z" fill="black"/>
</g>
<path d="M202.882 222.502L122.674 230.193L127.803 284.83L208.012 277.139L202.882 222.502Z" fill="white"/>
<path d="M208.013 277.152C208.013 277.152 207.955 276.798 207.888 276.141C207.813 275.45 207.713 274.489 207.58 273.242C207.321 270.68 206.946 266.972 206.471 262.237C205.537 252.731 204.211 239.114 202.585 222.539L202.911 222.808C180.765 224.949 152.908 227.654 122.717 230.569C122.634 230.654 123.351 229.794 123.051 230.165V230.266L123.067 230.384L123.092 230.611L123.134 231.066L123.217 231.977L123.384 233.797C123.501 235.01 123.609 236.215 123.726 237.412C123.951 239.813 124.176 242.198 124.393 244.566C124.835 249.302 125.268 253.962 125.702 258.537C126.552 267.68 127.37 276.478 128.145 284.803L127.77 284.491C151.349 282.3 171.36 280.438 185.509 279.124C192.572 278.483 198.175 277.978 202.043 277.632C203.944 277.472 205.42 277.337 206.454 277.253L207.605 277.16C207.863 277.143 207.997 277.135 208.005 277.143C208.005 277.143 207.888 277.169 207.646 277.202C207.371 277.236 207.004 277.278 206.537 277.329C205.52 277.438 204.069 277.59 202.202 277.784C198.35 278.171 192.78 278.744 185.76 279.452C171.56 280.859 151.483 282.84 127.828 285.174L127.486 285.208L127.453 284.862C126.661 276.537 125.827 267.748 124.968 258.605C124.535 254.029 124.101 249.369 123.651 244.633C123.426 242.265 123.201 239.881 122.975 237.479C122.859 236.274 122.75 235.069 122.634 233.864L122.467 232.044L122.384 231.134L122.342 230.679L122.317 230.451V230.333L122.3 230.274V230.232C121.992 230.595 122.709 229.718 122.642 229.811C152.842 226.946 180.707 224.3 202.852 222.193L203.152 222.168L203.177 222.471C204.678 239.139 205.904 252.832 206.763 262.388C207.171 267.099 207.496 270.79 207.713 273.343C207.813 274.565 207.888 275.517 207.947 276.191C207.997 276.832 208.005 277.143 208.005 277.143L208.013 277.152Z" fill="#455A64"/>
<path d="M202.876 222.514C202.876 222.514 202.685 222.808 202.259 223.322C201.784 223.887 201.15 224.629 200.367 225.547C198.649 227.519 196.248 230.274 193.296 233.662C187.21 240.538 178.863 249.967 169.567 260.484L169.358 260.72L169.091 260.551C168.416 260.113 167.691 259.65 166.957 259.178C154.725 251.248 143.653 244.069 135.557 238.827C131.613 236.224 128.394 234.109 126.085 232.583C125.026 231.867 124.175 231.294 123.533 230.856C122.958 230.451 122.658 230.232 122.666 230.207C122.683 230.182 123.008 230.367 123.608 230.721C124.275 231.126 125.143 231.665 126.235 232.331C128.569 233.797 131.829 235.853 135.832 238.372C143.953 243.572 155.067 250.684 167.349 258.537C168.083 259.009 168.808 259.481 169.483 259.911L169.008 259.978C178.371 249.529 186.776 240.15 192.913 233.316C195.939 229.996 198.399 227.291 200.158 225.353C200.984 224.468 201.642 223.761 202.151 223.221C202.61 222.741 202.86 222.497 202.885 222.514H202.876Z" fill="#455A64"/>
<path d="M372.434 143.58L361.598 182.333L418.493 198.583L429.329 159.829L372.434 143.58Z" fill="white"/>
<path d="M418.502 198.59C418.502 198.59 418.561 198.338 418.678 197.866C418.811 197.377 418.994 196.686 419.228 195.801C419.72 193.981 420.445 191.343 421.362 187.973C423.222 181.223 425.881 171.549 429.125 159.777L429.275 160.047C413.566 155.572 393.797 149.952 372.377 143.851C372.302 143.893 373.011 143.489 372.711 143.666V143.699L372.694 143.741L372.669 143.826L372.628 143.986L372.536 144.306L372.352 144.955L371.994 146.244C371.752 147.104 371.519 147.955 371.277 148.806C370.802 150.508 370.326 152.202 369.859 153.879C368.917 157.241 367.992 160.544 367.083 163.788C365.265 170.277 363.514 176.504 361.855 182.411L361.68 182.099C378.389 186.928 392.563 191.023 402.585 193.914C407.588 195.371 411.549 196.526 414.292 197.326C415.634 197.722 416.676 198.034 417.41 198.253C417.752 198.354 418.019 198.439 418.219 198.498C418.402 198.557 418.494 198.59 418.502 198.59C418.502 198.59 418.419 198.574 418.244 198.531C418.044 198.481 417.785 198.413 417.452 198.321C416.726 198.118 415.693 197.84 414.367 197.47C411.632 196.703 407.672 195.599 402.677 194.2C392.597 191.352 378.339 187.324 361.546 182.58L361.305 182.512L361.371 182.268C363.014 176.361 364.757 170.125 366.566 163.637C367.475 160.392 368.392 157.089 369.334 153.727C369.801 152.05 370.276 150.356 370.751 148.654C370.993 147.803 371.227 146.944 371.469 146.092L371.827 144.803L372.011 144.154L372.102 143.834L372.144 143.674L372.169 143.59V143.548L372.186 143.531C371.885 143.691 372.603 143.278 372.527 143.329C393.939 149.463 413.7 155.134 429.4 159.634L429.608 159.693L429.55 159.904C426.198 171.709 423.447 181.4 421.521 188.175C420.562 191.504 419.811 194.116 419.295 195.919C419.044 196.787 418.844 197.453 418.703 197.933C418.569 198.38 418.494 198.599 418.494 198.599L418.502 198.59Z" fill="#455A64"/>
<path d="M429.341 159.836C429.341 159.836 429.133 159.988 428.707 160.224C428.232 160.485 427.607 160.822 426.831 161.244C425.139 162.137 422.771 163.375 419.861 164.901C413.891 167.976 405.703 172.19 396.59 176.883L396.382 176.993L396.24 176.799C395.89 176.319 395.514 175.805 395.139 175.282C388.853 166.578 383.166 158.699 379.006 152.935C376.988 150.095 375.345 147.786 374.17 146.126C373.636 145.351 373.202 144.727 372.877 144.255C372.585 143.826 372.444 143.59 372.46 143.581C372.477 143.573 372.652 143.784 372.969 144.188C373.319 144.643 373.769 145.241 374.345 145.991C375.554 147.626 377.246 149.901 379.322 152.699C383.516 158.437 389.253 166.283 395.59 174.945C395.965 175.468 396.34 175.982 396.69 176.462L396.348 176.378C405.503 171.743 413.708 167.58 419.703 164.547C422.646 163.089 425.039 161.892 426.748 161.041C427.549 160.654 428.182 160.35 428.674 160.114C429.116 159.912 429.35 159.811 429.358 159.828L429.341 159.836Z" fill="#455A64"/>
<path d="M129.287 134.337C129.287 134.337 133.206 131.127 139.292 140.759C145.37 150.39 147.863 156.044 147.863 156.044C147.863 156.044 149.414 158.033 150.723 156.508C152.032 154.983 153.633 150.854 156.151 151.317C158.761 151.806 159.878 154.587 159.795 158.85C159.712 163.114 159.878 172.459 159.895 173.302C159.912 174.128 160.495 175.299 161.554 174.406C162.613 173.513 168.425 165.541 172.002 168.55C175.579 171.566 173.419 183.406 173.211 184.703C173.002 186.001 173.294 186.515 173.919 186.776C174.545 187.029 176.246 184.164 177.996 181.965C179.739 179.765 182.149 177.524 184.066 179.437C185.984 181.35 187.368 189.936 180.573 204.776L176.979 211.441L169.442 211.753C153.266 211.433 146.229 206.419 145.37 203.832C144.512 201.253 147.555 200.048 150.273 199.425C152.991 198.801 156.293 198.506 156.335 197.832C156.385 197.149 156.051 196.652 154.801 196.282C153.55 195.902 142.077 192.683 140.96 188.108C139.842 183.54 149.481 181.746 150.74 181.181C151.999 180.616 151.215 179.572 150.49 179.192C149.748 178.805 141.502 174.566 137.675 172.771C133.848 170.976 131.855 168.743 132.564 166.156C133.247 163.662 137.625 164.016 139.559 163.494C141.493 162.971 140.401 160.687 140.401 160.687C140.401 160.687 136.466 155.943 130.562 146.202C124.659 136.461 129.353 134.27 129.353 134.27" fill="#0B30E3"/>
<path d="M134.748 142.949C134.748 142.949 134.781 143.025 134.865 143.16C134.948 143.303 135.065 143.505 135.215 143.767C135.532 144.306 135.999 145.081 136.591 146.084C137.791 148.089 139.542 150.988 141.727 154.553C146.088 161.69 152.199 171.499 158.986 182.31C165.773 193.121 171.91 202.922 176.304 210.034C178.497 213.581 180.273 216.463 181.507 218.46C182.115 219.446 182.591 220.213 182.924 220.752C183.083 221.005 183.208 221.199 183.299 221.342C183.383 221.477 183.433 221.536 183.433 221.536C183.433 221.536 183.399 221.46 183.316 221.325C183.233 221.182 183.116 220.98 182.966 220.719C182.649 220.179 182.182 219.404 181.59 218.401C180.389 216.396 178.639 213.497 176.454 209.932C172.093 202.795 165.982 192.987 159.195 182.167C152.408 171.355 146.279 161.564 141.877 154.452C139.684 150.904 137.908 148.022 136.674 146.025C136.065 145.039 135.59 144.272 135.257 143.733C135.098 143.48 134.973 143.286 134.881 143.143C134.798 143.008 134.748 142.949 134.748 142.949Z" fill="#263238"/>
<path d="M154.151 157.182C154.151 157.182 154.084 157.368 154.009 157.713C153.934 158.059 153.834 158.556 153.717 159.179C153.492 160.418 153.225 162.145 152.967 164.05C152.725 165.929 152.5 167.623 152.325 168.929C152.25 169.51 152.183 169.999 152.125 170.404C152.075 170.749 152.058 170.943 152.075 170.951C152.091 170.951 152.141 170.766 152.225 170.42C152.3 170.075 152.4 169.578 152.508 168.954C152.725 167.707 152.967 165.988 153.225 164.084C153.484 162.213 153.717 160.519 153.901 159.213C153.984 158.632 154.051 158.143 154.109 157.738C154.159 157.393 154.176 157.191 154.159 157.191L154.151 157.182Z" fill="#263238"/>
<path d="M151.406 171.153C151.423 171.086 147.93 170.37 143.619 169.561C139.3 168.752 135.798 168.154 135.781 168.221C135.765 168.288 139.258 169.005 143.569 169.814C147.88 170.623 151.39 171.221 151.406 171.153Z" fill="#263238"/>
<path d="M162.562 187.282C162.562 187.282 162.362 187.282 162.004 187.307C161.595 187.349 161.095 187.4 160.503 187.459C159.236 187.585 157.485 187.745 155.55 187.863C153.616 187.981 151.857 188.023 150.581 188.049C149.989 188.057 149.48 188.074 149.072 188.082C148.713 188.091 148.521 188.108 148.521 188.124C148.521 188.141 148.722 188.158 149.072 188.183C149.43 188.2 149.947 188.226 150.581 188.234C151.857 188.259 153.616 188.234 155.559 188.124C157.501 188.015 159.252 187.813 160.52 187.644C161.153 187.56 161.662 187.476 162.012 187.417C162.362 187.358 162.554 187.307 162.554 187.29L162.562 187.282Z" fill="#263238"/>
<path d="M167.799 175.198C167.799 175.198 167.69 175.35 167.54 175.645C167.39 175.94 167.182 176.378 166.932 176.909C166.423 177.979 165.739 179.471 164.997 181.122C164.255 182.774 163.596 184.274 163.129 185.369C162.896 185.917 162.713 186.364 162.588 186.667C162.462 186.979 162.404 187.147 162.421 187.156C162.437 187.156 162.529 187.004 162.679 186.709C162.829 186.414 163.038 185.984 163.288 185.445C163.797 184.375 164.48 182.883 165.222 181.232C165.964 179.58 166.623 178.08 167.082 176.985C167.315 176.437 167.499 175.99 167.624 175.687C167.749 175.375 167.807 175.207 167.79 175.198H167.799Z" fill="#263238"/>
<path d="M179.439 188.175C179.439 188.175 179.306 188.378 179.122 188.757C178.914 189.186 178.647 189.726 178.33 190.375C177.671 191.748 176.779 193.653 175.812 195.759C174.845 197.866 173.978 199.787 173.361 201.178C173.077 201.843 172.836 202.391 172.644 202.829C172.477 203.225 172.394 203.444 172.41 203.453C172.427 203.453 172.544 203.251 172.727 202.871C172.936 202.442 173.202 201.902 173.519 201.253C174.178 199.88 175.07 197.975 176.037 195.869C177.004 193.762 177.872 191.841 178.489 190.45C178.772 189.785 179.014 189.237 179.206 188.799C179.372 188.403 179.456 188.184 179.439 188.175Z" fill="#263238"/>
<path d="M172.486 203.031C172.486 203.031 172.236 203.023 171.786 203.048C171.285 203.082 170.643 203.115 169.876 203.166C168.267 203.267 166.041 203.402 163.581 203.478C161.121 203.562 158.887 203.57 157.278 203.57C156.511 203.57 155.869 203.57 155.368 203.57C154.918 203.57 154.668 203.587 154.668 203.604C154.668 203.621 154.918 203.646 155.368 203.672C155.819 203.697 156.469 203.731 157.278 203.747C158.895 203.798 161.13 203.806 163.598 203.731C166.066 203.655 168.292 203.495 169.901 203.343C170.71 203.267 171.36 203.2 171.802 203.141C172.253 203.082 172.494 203.048 172.494 203.031H172.486Z" fill="#263238"/>
<path d="M420.869 210.345C418.068 209.039 414.733 209.241 411.873 210.413C409.013 211.584 406.586 213.649 404.535 215.983C400.567 220.491 398.357 227.064 397.248 232.988C403.827 233.805 410.255 229.541 413.382 227.173C418.326 223.432 425.005 213.623 420.869 210.345Z" fill="#0B30E3"/>
<path d="M385.35 235.313C388.493 233.881 390.544 230.493 390.786 227.013C391.028 223.541 389.594 220.061 387.284 217.483C386.217 216.286 384.8 215.199 383.207 215.283C381.723 215.359 380.431 216.488 379.805 217.862C379.18 219.227 379.13 220.794 379.28 222.294C379.78 227.435 381.198 232.314 385.35 235.313Z" fill="#0B30E3"/>
<path d="M376.712 252.082C376.712 252.082 377.045 251.771 377.537 251.13C378.038 250.49 378.738 249.554 379.572 248.366C381.214 245.99 383.466 242.603 384.975 238.372C386.484 234.134 386.617 229.92 385.975 227.047C385.675 225.606 385.25 224.485 384.891 223.752C384.533 223.019 384.274 222.648 384.241 222.665C384.116 222.724 385.05 224.3 385.517 227.131C386.017 229.946 385.817 234.007 384.349 238.136C382.874 242.265 380.722 245.653 379.18 248.088C377.612 250.515 376.629 252.015 376.712 252.074V252.082Z" fill="#263238"/>
<path d="M414.933 217.23C414.933 217.23 414.316 217.634 413.266 218.469C412.223 219.303 410.731 220.525 408.897 222.067C405.245 225.143 400.259 229.474 394.872 234.387C389.486 239.308 384.725 243.883 381.332 247.246C379.631 248.931 378.272 250.304 377.354 251.274C376.429 252.243 375.937 252.79 375.97 252.824C376.004 252.858 376.562 252.369 377.538 251.467C378.597 250.473 379.989 249.167 381.665 247.6C385.142 244.322 389.953 239.813 395.331 234.892C400.709 229.979 405.636 225.598 409.213 222.438C410.931 220.912 412.357 219.648 413.441 218.679C414.433 217.786 414.966 217.272 414.941 217.238L414.933 217.23Z" fill="#263238"/>
<path d="M389.136 244.406C395.156 240.293 403.194 239.383 409.964 242.055C411.69 242.737 413.558 243.984 413.591 245.855C413.624 247.726 411.782 249.04 410.064 249.74C402.902 252.638 394.072 250.591 388.869 244.835" fill="#0B30E3"/>
<path d="M405.495 245.451C405.511 245.409 405.128 245.215 404.419 244.911C404.069 244.751 403.627 244.574 403.093 244.423C402.568 244.263 401.976 244.044 401.292 243.917C399.942 243.58 398.299 243.369 396.465 243.302C394.63 243.277 392.604 243.428 390.52 243.858C388.444 244.313 386.534 245.004 384.858 245.779C383.208 246.588 381.782 247.456 380.681 248.316C380.106 248.712 379.656 249.15 379.23 249.512C378.805 249.866 378.48 250.212 378.213 250.498C377.688 251.071 377.413 251.4 377.446 251.434C377.538 251.526 378.713 250.271 380.948 248.703C382.057 247.911 383.474 247.102 385.1 246.344C386.743 245.619 388.619 244.962 390.637 244.515C392.663 244.094 394.639 243.934 396.431 243.926C398.224 243.951 399.842 244.111 401.176 244.381C403.852 244.895 405.428 245.569 405.47 245.442L405.495 245.451Z" fill="#263238"/>
<path d="M383.6 60.9243H172.869V294.451H383.6V60.9243Z" fill="#FAFAFA"/>
<path d="M383.592 294.443C383.592 292.783 383.517 200.469 383.401 60.9159L383.592 61.1097C321.8 61.1097 249.628 61.1265 172.886 61.135H172.861L173.078 60.9159C173.07 146.842 173.053 227.097 173.045 294.443L172.861 294.258C299.58 294.367 382.025 294.443 383.592 294.443C382.033 294.443 299.588 294.519 172.861 294.628H172.678V294.443C172.67 227.097 172.661 146.851 172.645 60.9159V60.6968H172.886C249.628 60.7052 321.8 60.7136 383.592 60.7221H383.784V60.9159C383.667 200.469 383.592 292.783 383.592 294.443Z" fill="#263238"/>
<path d="M326.604 246.142H246.077C239.395 246.142 233.979 251.616 233.979 258.369V260.846C233.979 267.599 239.395 273.073 246.077 273.073H326.604C333.285 273.073 338.702 267.599 338.702 260.846V258.369C338.702 251.616 333.285 246.142 326.604 246.142Z" fill="#E8505B"/>
<path d="M326.604 246.142H246.077C239.395 246.142 233.979 251.616 233.979 258.369V260.846C233.979 267.599 239.395 273.073 246.077 273.073H326.604C333.285 273.073 338.702 267.599 338.702 260.846V258.369C338.702 251.616 333.285 246.142 326.604 246.142Z" fill="#0224A0"/>
<path d="M317.815 246.142H237.288C230.606 246.142 225.189 251.616 225.189 258.369V260.846C225.189 267.599 230.606 273.073 237.288 273.073H317.815C324.496 273.073 329.913 267.599 329.913 260.846V258.369C329.913 251.616 324.496 246.142 317.815 246.142Z" fill="#0B30E3"/>
<path d="M339.552 228.184C339.552 228.302 312.754 228.404 279.703 228.404C246.652 228.404 219.846 228.302 219.846 228.184C219.846 228.066 246.635 227.965 279.703 227.965C312.771 227.965 339.552 228.066 339.552 228.184Z" fill="#263238"/>
<path d="M358.279 235.499C358.279 235.617 323.094 235.718 279.703 235.718C236.313 235.718 201.119 235.617 201.119 235.499C201.119 235.381 236.297 235.28 279.703 235.28C323.11 235.28 358.279 235.381 358.279 235.499Z" fill="#263238"/>
<path d="M182.776 70.0084C182.776 71.0027 181.975 71.8117 180.991 71.8117C180.007 71.8117 179.207 71.0027 179.207 70.0084C179.207 69.014 180.007 68.2051 180.991 68.2051C181.975 68.2051 182.776 69.014 182.776 70.0084Z" fill="#E0E0E0"/>
<path d="M186.935 71.8117C187.92 71.8117 188.719 71.0043 188.719 70.0084C188.719 69.0124 187.92 68.2051 186.935 68.2051C185.949 68.2051 185.15 69.0124 185.15 70.0084C185.15 71.0043 185.949 71.8117 186.935 71.8117Z" fill="#E0E0E0"/>
<path d="M194.674 70.0084C194.674 71.0027 193.874 71.8117 192.89 71.8117C191.906 71.8117 191.105 71.0027 191.105 70.0084C191.105 69.014 191.906 68.2051 192.89 68.2051C193.874 68.2051 194.674 69.014 194.674 70.0084Z" fill="#E0E0E0"/>
<path d="M264.586 254.139C264.536 253.978 264.436 253.844 264.302 253.751C264.169 253.658 264.027 253.599 263.877 253.591C263.727 253.591 263.577 253.616 263.443 253.7C263.285 253.793 263.177 253.936 263.127 254.13L259.916 264.706C259.841 264.975 259.933 265.161 260.017 265.27C260.117 265.397 260.242 265.489 260.392 265.54C260.467 265.565 260.55 265.582 260.634 265.582C260.717 265.582 260.792 265.565 260.875 265.54C261 265.498 261.167 265.388 261.242 265.135L262.176 262.001L265.67 261.849L266.712 265.085C266.787 265.279 266.92 265.405 267.104 265.472C267.262 265.523 267.429 265.523 267.587 265.472C267.746 265.422 267.879 265.321 267.971 265.186C268.054 265.076 268.129 264.882 268.038 264.613L264.594 254.139H264.586ZM265.244 260.534L262.576 260.635L263.885 256.262L265.253 260.526L265.244 260.534Z" fill="white"/>
<path d="M274.016 259.296C274.091 259.237 274.158 259.178 274.224 259.11C274.433 258.916 274.616 258.689 274.791 258.445C274.966 258.192 275.092 257.922 275.183 257.636C275.275 257.349 275.317 257.046 275.308 256.751C275.292 256.262 275.192 255.832 275.008 255.47C274.825 255.108 274.566 254.804 274.258 254.56C273.949 254.324 273.574 254.139 273.149 254.021C272.732 253.903 272.282 253.852 271.798 253.869L269.472 253.903C269.313 253.903 269.147 253.945 268.988 254.037C268.846 254.113 268.68 254.282 268.68 254.619L268.788 264.579C268.788 264.849 268.913 265 269.013 265.085C269.147 265.186 269.297 265.236 269.48 265.236H272.373C272.882 265.236 273.357 265.161 273.791 265.017C274.224 264.874 274.608 264.655 274.925 264.377C275.242 264.099 275.492 263.753 275.658 263.366C275.834 262.978 275.917 262.548 275.917 262.085C275.917 261.369 275.709 260.737 275.308 260.223C274.991 259.827 274.566 259.515 274.024 259.304L274.016 259.296ZM272.04 260.256C272.482 260.248 272.874 260.29 273.19 260.4C273.507 260.509 273.774 260.644 273.983 260.821C274.183 260.989 274.333 261.183 274.424 261.402C274.516 261.621 274.566 261.84 274.566 262.068C274.566 262.27 274.525 262.481 274.449 262.683C274.374 262.885 274.249 263.071 274.091 263.239C273.933 263.399 273.716 263.534 273.449 263.644C273.182 263.745 272.857 263.804 272.473 263.804L270.156 263.821L270.122 260.307L272.04 260.256ZM272.69 258.588C272.432 258.714 272.148 258.782 271.848 258.79L270.097 258.841L270.064 255.226L271.831 255.192C272.523 255.192 273.049 255.352 273.391 255.672C273.732 255.992 273.899 256.346 273.916 256.742C273.916 256.978 273.866 257.214 273.774 257.45C273.674 257.686 273.532 257.905 273.357 258.107C273.182 258.301 272.957 258.461 272.699 258.588H272.69Z" fill="white"/>
<path d="M281.97 260.332C282.512 260.104 282.962 259.776 283.321 259.338C283.746 258.815 283.963 258.091 283.963 257.172C283.963 256.582 283.863 256.068 283.654 255.655C283.446 255.242 283.162 254.897 282.812 254.636C282.47 254.374 282.062 254.189 281.595 254.071C281.145 253.953 280.661 253.894 280.161 253.894H277.626C277.468 253.894 277.309 253.945 277.159 254.046C277.034 254.13 276.892 254.29 276.867 254.627L276.976 264.705C276.976 264.975 277.109 265.135 277.217 265.211C277.351 265.312 277.509 265.363 277.676 265.363C277.843 265.363 277.993 265.312 278.135 265.211C278.243 265.127 278.376 264.975 278.376 264.697L278.326 260.72H279.585C279.911 260.72 280.219 260.703 280.511 260.677L283.212 264.992C283.371 265.262 283.588 265.295 283.696 265.295C283.863 265.295 284.013 265.245 284.146 265.144C284.28 265.051 284.371 264.925 284.43 264.764C284.48 264.63 284.513 264.427 284.363 264.208L281.978 260.315L281.97 260.332ZM282.37 258.293C282.203 258.571 281.978 258.79 281.703 258.933C281.42 259.093 281.086 259.194 280.719 259.245C280.336 259.296 279.952 259.321 279.577 259.321H278.31L278.26 255.225H280.194C280.536 255.225 280.861 255.259 281.161 255.335C281.445 255.402 281.703 255.52 281.912 255.681C282.12 255.832 282.278 256.034 282.404 256.27C282.529 256.515 282.595 256.81 282.604 257.164C282.612 257.635 282.537 258.015 282.37 258.293Z" fill="white"/>
<path d="M291.167 255.091C291.276 254.956 291.334 254.796 291.334 254.619C291.334 254.442 291.293 254.299 291.201 254.164C291.126 254.046 290.976 253.911 290.684 253.911L285.623 253.928C285.406 253.928 285.223 254.004 285.097 254.147C284.972 254.282 284.906 254.442 284.897 254.611C284.889 254.779 284.939 254.939 285.047 255.091C285.131 255.2 285.298 255.335 285.598 255.335H287.349L287.399 263.829L285.631 263.846C285.414 263.846 285.239 263.922 285.106 264.057C284.981 264.192 284.906 264.343 284.897 264.512C284.889 264.68 284.939 264.84 285.047 264.984C285.131 265.093 285.298 265.228 285.598 265.228L290.676 265.194C290.942 265.194 291.092 265.068 291.176 264.958C291.276 264.824 291.326 264.663 291.318 264.487C291.309 264.326 291.251 264.175 291.159 264.04C291.076 263.93 290.926 263.804 290.642 263.804L288.799 263.821L288.716 255.327L290.684 255.31C290.951 255.31 291.101 255.184 291.192 255.074L291.167 255.091Z" fill="white"/>
<path d="M299.622 264.234L297.238 260.341C297.779 260.113 298.23 259.785 298.588 259.346C299.013 258.824 299.23 258.099 299.23 257.181C299.23 256.591 299.13 256.077 298.922 255.664C298.713 255.251 298.43 254.906 298.08 254.644C297.738 254.383 297.329 254.198 296.862 254.08C296.412 253.962 295.929 253.903 295.428 253.903H292.894C292.735 253.903 292.577 253.953 292.427 254.055C292.302 254.139 292.16 254.299 292.135 254.636L292.243 264.714C292.243 264.984 292.377 265.144 292.485 265.22C292.618 265.321 292.777 265.371 292.944 265.371C293.11 265.371 293.26 265.321 293.402 265.22C293.511 265.136 293.644 264.984 293.644 264.706L293.594 260.728H294.853C295.178 260.728 295.487 260.712 295.778 260.686L298.48 265.001C298.638 265.27 298.855 265.304 298.963 265.304C299.13 265.304 299.28 265.254 299.414 265.152C299.547 265.06 299.639 264.933 299.697 264.773C299.747 264.638 299.781 264.436 299.63 264.217L299.622 264.234ZM297.629 258.293C297.463 258.571 297.238 258.79 296.962 258.934C296.679 259.094 296.345 259.195 295.979 259.245C295.595 259.296 295.211 259.321 294.836 259.321H293.569L293.519 255.226H295.453C295.795 255.226 296.12 255.26 296.42 255.335C296.704 255.403 296.962 255.521 297.171 255.681C297.379 255.833 297.538 256.035 297.663 256.271C297.788 256.515 297.855 256.81 297.863 257.164C297.871 257.636 297.796 258.015 297.629 258.293Z" fill="white"/>
<path d="M367.916 107.768L371.385 95.1364C371.385 95.1364 372.636 90.0045 372.936 88.808C373.328 87.2238 372.227 86.7266 371.577 87.8052C371.326 88.2181 368.592 93.4426 368.592 93.4426C368.592 93.4426 370.776 84.8896 370.86 84.5778C371.568 81.7886 369.859 82.0751 369.359 83.0694C368.842 84.0975 365.748 92.5157 365.748 92.5157C368.658 81.5189 367.75 80.5499 366.932 80.3729C366.115 80.196 363.556 90.2573 363.556 90.2573C363.556 90.2573 362.63 88.5383 360.929 87.3502C358.303 85.5216 353.917 87.3502 353.709 88.5973C353.5 89.8444 355.059 90.1984 355.059 90.1984C358.353 88.0496 361.73 90.6534 361.379 93.8302C361.038 97.0071 357.052 96.5689 356.56 94.3021C355.476 89.3388 353.784 90.9568 353.784 90.9568L355.476 101.895L353.684 107.397" fill="#FFBE9D"/>
<path d="M243.096 159.246L318.012 158.741L320.072 210.219L242.496 209.444L243.096 159.246Z" fill="#455A64"/>
<path d="M243.098 159.246L281.152 128.169L318.013 158.741" fill="#263238"/>
<path d="M242.497 209.444C242.405 209.351 248.408 202.745 255.896 194.672C263.391 186.599 269.545 180.128 269.636 180.22C269.728 180.313 263.733 186.919 256.229 194.992C248.733 203.065 242.58 209.528 242.488 209.444H242.497Z" fill="#263238"/>
<path d="M320.073 210.219C319.981 210.303 314.136 203.815 307.041 195.734C299.937 187.644 294.259 181.021 294.351 180.928C294.442 180.844 300.279 187.332 307.391 195.422C314.495 203.511 320.173 210.135 320.081 210.219H320.073Z" fill="#263238"/>
<path d="M318.013 158.741L280.376 189.093L243.098 159.246" fill="#263238"/>
<path d="M193.037 101.238H193.287L192.286 97.8416L189.076 84.8983C188.768 83.727 189.418 82.5136 190.586 82.0754L192.895 81.9995L200.808 78.2581C202.3 77.702 203.951 78.6457 204.143 80.1878C204.435 82.5641 206.036 88.9599 207.737 86.7184C207.778 86.6679 207.82 86.6258 207.862 86.5752C210.255 83.2467 213.239 81.4434 214.465 81.4939C215.666 81.5445 216.108 83.0107 215.299 83.8871C215.182 84.0388 215.04 84.1736 214.849 84.2831C214.765 84.3253 214.674 84.4011 214.59 84.4601C213.665 85.2185 212.556 86.5583 211.747 87.6201C210.972 88.6313 210.38 89.7857 210.004 90.9907C209.579 92.3306 209.271 93.5103 209.029 94.5046L209.646 101.111" fill="#FFBE9D"/>
<path d="M214.14 42.5965C214.14 42.5965 204.894 40.81 191.611 28.6083C178.338 16.4234 171.792 -0.0928227 170.216 0.0335767C168.632 0.159976 161.637 -2.88203 149.305 26.3836C136.973 55.6493 142.343 62.2136 144.953 62.0872C147.563 61.9608 165.18 56.4498 176.311 57.402C187.434 58.3627 201.859 63.7894 201.859 63.7894L214.149 42.5965H214.14Z" fill="#455A64"/>
<path d="M234.101 57.7896L231.133 63.8989L229.807 66.6375C227.99 70.3958 223.571 72.0474 219.769 70.4127L199.883 64.0421L210.605 37.2539L230.574 47.29C234.41 49.2197 235.986 53.9049 234.101 57.798V57.7896Z" fill="#263238"/>
<path d="M223.02 67.7581L217.091 80.3644L213.931 79.5723L193.912 97.007L187.867 85.8417C187.867 85.8417 199.832 80.2211 201.95 75.7971C204.068 71.3647 201.45 70.4547 201.45 70.4547L206.969 63.7471L223.028 67.7666L223.02 67.7581Z" fill="#263238"/>
<path d="M150.381 26.8809C143.827 42.7314 141.309 56.7617 144.753 58.2195C148.196 59.6773 156.309 48.0064 162.863 32.1559C169.416 16.3055 171.934 2.27512 168.491 0.817319C165.047 -0.640488 156.934 11.0304 150.381 26.8809Z" fill="#263238"/>
<path d="M236.035 66.4439L230.648 64.9018L233.775 58.4639L237.852 60.857L236.035 66.4439Z" fill="#455A64"/>
<path d="M205.068 66.0391L219.676 74.8702L221.361 71.2804L205.068 66.0391Z" fill="#455A64"/>
<path d="M233.775 58.4639L230.648 64.9018L231.757 65.222L234.267 58.7504L233.775 58.4639Z" fill="#455A64"/>
<path d="M230.141 60.0311C230.066 60.2081 227.373 59.239 224.13 57.8655C220.878 56.4919 218.302 55.2364 218.377 55.0594C218.452 54.8825 221.145 55.8515 224.388 57.2251C227.64 58.5986 230.208 59.8542 230.141 60.0311Z" fill="#455A64"/>
<path d="M231.674 56.2052C231.591 56.3822 229.156 55.4215 226.23 54.0649C223.295 52.7082 220.985 51.4695 221.069 51.2925C221.144 51.1155 223.587 52.0762 226.513 53.4329C229.44 54.7895 231.758 56.0283 231.674 56.2052Z" fill="#455A64"/>
<path d="M228.181 64.0505C228.156 64.1432 227.514 64.0168 226.497 63.7302C225.989 63.587 225.38 63.4016 224.713 63.1909C224.046 62.9719 223.354 62.6432 222.612 62.323C219.652 61.0337 217.384 59.7613 217.451 59.6012C217.534 59.4074 219.944 60.4102 222.879 61.691C223.612 62.0028 224.296 62.3483 224.938 62.6011C225.58 62.8455 226.164 63.073 226.647 63.2668C227.615 63.6713 228.207 63.9662 228.181 64.0589V64.0505Z" fill="#455A64"/>
<path d="M164.538 22.9963C164.538 22.9963 156.409 18.2184 152.348 29.2488C148.288 40.2793 156.734 41.8298 156.734 41.8298C160.019 36.344 162.637 30.0915 164.53 22.9963H164.538Z" fill="#455A64"/>
<path d="M172.667 9.75765C172.717 9.75765 172.625 10.5076 172.408 11.8475C172.192 13.1873 171.891 15.1338 171.441 17.5186C171.133 18.6983 170.799 19.9876 170.449 21.3695C170.266 22.0605 170.082 22.7768 169.89 23.5099C169.79 23.8807 169.699 24.2514 169.599 24.6306C169.49 25.0098 169.348 25.3722 169.215 25.7598C168.681 27.2766 168.123 28.8692 167.547 30.5124C167.406 30.9253 167.256 31.3382 167.106 31.7596C166.964 32.1809 166.755 32.5769 166.58 32.9983C166.213 33.8241 165.838 34.6583 165.463 35.5094C165.088 36.3521 164.713 37.1947 164.346 38.0121C164.154 38.4166 163.996 38.8379 163.779 39.2256C163.562 39.6132 163.354 40.0008 163.145 40.3884C162.303 41.9221 161.494 43.3967 160.719 44.804C160.519 45.1495 160.344 45.5034 160.135 45.8405C159.918 46.1691 159.71 46.4893 159.501 46.8095C159.085 47.4415 158.676 48.0567 158.284 48.6549C157.492 49.8431 156.758 50.947 156.083 51.9582C154.607 53.871 153.373 55.3794 152.523 56.4327C151.664 57.4776 151.172 58.0422 151.139 58.0085C151.105 57.9832 151.522 57.3596 152.314 56.2642C153.14 55.1519 154.29 53.5845 155.708 51.6548C156.358 50.6352 157.058 49.5229 157.817 48.3263C158.201 47.728 158.593 47.1129 159.001 46.4809C159.201 46.1607 159.41 45.8405 159.618 45.5118C159.818 45.1832 159.993 44.8293 160.185 44.4753C160.944 43.0681 161.736 41.5934 162.553 40.0682C162.762 39.689 162.97 39.3014 163.178 38.9138C163.395 38.5261 163.545 38.1048 163.737 37.7003C164.104 36.883 164.471 36.0487 164.846 35.2061C165.221 34.3634 165.596 33.5376 165.955 32.7202C166.13 32.3073 166.338 31.9112 166.48 31.4983C166.63 31.0854 166.78 30.6725 166.922 30.2596C167.514 28.6249 168.081 27.0491 168.623 25.5491C168.756 25.1699 168.907 24.8076 169.015 24.4368C169.115 24.0661 169.223 23.6953 169.323 23.3245C169.524 22.5998 169.724 21.892 169.915 21.201C170.299 19.8359 170.658 18.5635 170.983 17.3922C171.475 15.0496 171.875 13.1452 172.158 11.7885C172.45 10.4655 172.625 9.73237 172.675 9.74079L172.667 9.75765Z" fill="#263238"/>
<path d="M220.678 130.199L212.415 98.4563L191.754 99.0125L198.182 143.311C199.008 152.951 204.619 159.263 214.066 160.797C219.736 161.715 225.872 156.255 230.425 152.724C233.393 150.415 233.927 150.87 236.987 148.055L250.294 138.331L250.619 139.924H250.536L252.795 166.999L280.36 188.874L313.236 162.254L312.486 150.744C312.569 150.735 312.644 150.575 312.478 150.575L311.627 137.522L328.47 157.047C332.347 162.768 338.942 165.97 345.787 165.44C353.183 164.875 359.595 160.055 362.271 153.061L370.951 108.433L351.907 104.296L342.986 136.452L321.708 111.737C309.443 95.5829 295.11 96.948 295.11 96.948L268.696 96.4761C268.696 96.4761 268.654 96.4761 268.637 96.4761C267.854 96.5182 253.096 96.9732 243.09 107.776L220.67 130.208L220.678 130.199Z" fill="#0B30E3"/>
<path d="M322.783 113.498C322.783 113.498 322.5 113.363 321.933 113.186C321.374 113.001 320.507 112.832 319.382 112.916C318.264 113.009 316.922 113.371 315.471 114.046C314.012 114.703 312.503 115.748 310.744 116.767C309.001 117.762 306.9 118.849 304.432 118.79C303.214 118.748 301.989 118.411 300.796 117.939C299.604 117.467 298.437 116.885 297.203 116.388C294.76 115.377 291.9 115.04 289.082 115.613C286.247 116.161 283.646 117.77 280.986 119.329C279.643 120.104 278.293 120.854 276.875 121.41C275.458 121.967 273.982 122.329 272.523 122.481C269.596 122.801 266.695 122.363 264.202 121.309C261.692 120.273 259.582 118.773 257.656 117.366C255.73 115.958 253.954 114.61 252.22 113.599C250.478 112.588 248.777 111.905 247.226 111.518C245.675 111.147 244.291 111.063 243.174 111.181C240.922 111.425 239.855 112.217 239.83 112.141C239.83 112.141 239.897 112.091 240.03 112.015C240.164 111.939 240.364 111.829 240.631 111.695C241.181 111.467 242.015 111.138 243.157 111.004C244.291 110.86 245.7 110.919 247.284 111.273C248.86 111.644 250.594 112.31 252.37 113.321C254.146 114.332 255.939 115.672 257.865 117.062C259.799 118.444 261.892 119.927 264.352 120.922C266.795 121.933 269.621 122.354 272.481 122.034C273.907 121.882 275.341 121.528 276.725 120.981C278.109 120.441 279.443 119.7 280.777 118.925C283.429 117.374 286.072 115.731 289.007 115.166C291.908 114.585 294.852 114.947 297.353 115.992C299.829 117.012 302.081 118.335 304.44 118.411C306.791 118.486 308.851 117.45 310.585 116.481C312.336 115.487 313.879 114.45 315.371 113.81C316.847 113.144 318.223 112.798 319.365 112.731C320.507 112.664 321.391 112.874 321.95 113.085C322.517 113.296 322.775 113.481 322.775 113.481L322.783 113.498Z" fill="#FAFAFA"/>
<path d="M338.1 129.315C338.1 129.315 338.025 129.744 337.649 130.486C337.274 131.219 336.549 132.247 335.256 133.157C333.989 134.067 332.163 134.842 329.945 135.061C327.736 135.314 325.209 135.045 322.466 134.733C319.74 134.455 316.638 134.109 313.561 135.137C312.035 135.66 310.593 136.536 309.151 137.48C307.7 138.424 306.216 139.469 304.506 140.21C301.121 141.719 297.111 142.283 293.142 141.55C291.157 141.213 289.198 140.497 287.372 139.502C285.538 138.508 283.837 137.278 282.069 136.123C280.302 134.977 278.501 133.899 276.55 133.326C274.607 132.736 272.572 132.668 270.621 132.955C266.703 133.528 263.151 135.12 259.599 136.09C257.831 136.595 256.047 136.949 254.287 136.991C252.536 137.025 250.802 136.772 249.276 136.132C246.2 134.851 243.932 132.668 241.922 130.772C239.913 128.851 238.062 127.132 236.186 125.994C234.327 124.832 232.467 124.309 230.941 124.183C229.407 124.056 228.215 124.334 227.456 124.604C226.697 124.891 226.339 125.135 226.322 125.11C226.322 125.11 226.664 124.84 227.423 124.52C228.182 124.216 229.391 123.905 230.95 124.006C232.501 124.107 234.41 124.612 236.311 125.775C238.229 126.913 240.113 128.624 242.131 130.536C244.157 132.416 246.417 134.556 249.41 135.786C250.902 136.401 252.57 136.629 254.279 136.595C255.988 136.553 257.739 136.199 259.49 135.693C261.241 135.196 263.017 134.564 264.843 133.974C266.669 133.385 268.562 132.803 270.563 132.525C272.556 132.23 274.665 132.298 276.675 132.904C278.692 133.503 280.527 134.606 282.303 135.752C284.079 136.915 285.78 138.137 287.58 139.115C289.373 140.092 291.282 140.783 293.225 141.12C297.111 141.836 301.038 141.289 304.356 139.831C307.675 138.365 310.276 135.828 313.461 134.783C315.037 134.253 316.638 134.101 318.164 134.101C319.69 134.101 321.14 134.253 322.516 134.413C325.259 134.75 327.761 135.036 329.937 134.809C332.121 134.623 333.914 133.89 335.173 133.014C336.457 132.146 337.191 131.152 337.583 130.444C337.974 129.727 338.083 129.298 338.108 129.315H338.1Z" fill="#FAFAFA"/>
<path d="M362.188 150.761C362.188 150.761 361.863 150.306 361.037 149.808C360.228 149.311 358.811 148.915 357.118 149.219C355.426 149.514 353.633 150.626 351.841 152.067C350.932 152.775 349.99 153.558 348.931 154.258C347.872 154.949 346.663 155.581 345.312 155.833C343.961 156.103 342.611 155.977 341.377 155.724C340.134 155.463 338.975 155.075 337.883 154.696C336.791 154.317 335.765 153.946 334.781 153.685C333.797 153.423 332.864 153.272 332.005 153.213C330.287 153.086 328.886 153.415 328.036 153.853C327.169 154.283 326.785 154.687 326.76 154.645C326.752 154.637 326.844 154.536 327.035 154.359C327.127 154.266 327.252 154.165 327.411 154.055C327.561 153.937 327.744 153.82 327.969 153.702C328.828 153.196 330.262 152.817 332.03 152.901C332.914 152.943 333.872 153.086 334.873 153.331C335.882 153.584 336.924 153.946 338.008 154.317C340.168 155.025 342.652 155.892 345.229 155.404C346.504 155.168 347.655 154.569 348.697 153.895C349.739 153.221 350.682 152.454 351.599 151.747C353.416 150.322 355.284 149.185 357.068 148.915C358.844 148.637 360.312 149.109 361.129 149.665C361.546 149.935 361.804 150.238 361.979 150.432C362.129 150.643 362.205 150.761 362.196 150.769L362.188 150.761Z" fill="#FAFAFA"/>
<path d="M366.373 126.542C366.373 126.542 366.148 126.761 365.656 126.997C365.164 127.233 364.397 127.486 363.413 127.57C362.437 127.655 361.262 127.57 360.003 127.259C358.744 126.964 357.426 126.45 356.05 125.927C354.675 125.413 353.357 124.95 352.123 124.739C350.889 124.528 349.747 124.545 348.822 124.731C346.937 125.085 346.07 126.037 346.028 125.953C346.012 125.936 346.203 125.691 346.645 125.363C347.087 125.034 347.804 124.655 348.763 124.427C349.722 124.2 350.906 124.149 352.19 124.343C353.474 124.537 354.825 124.992 356.201 125.514C357.576 126.037 358.877 126.551 360.094 126.863C361.312 127.174 362.446 127.301 363.388 127.259C365.297 127.183 366.331 126.458 366.364 126.542H366.373Z" fill="#FAFAFA"/>
<path d="M311.093 158.395C311.068 158.446 310.359 157.923 308.908 157.384C307.466 156.862 305.223 156.415 302.471 156.71C299.72 156.954 296.568 158.05 293.275 159.659C289.965 161.235 286.463 163.342 282.385 164.673C280.351 165.33 278.275 165.743 276.249 165.743C274.223 165.743 272.288 165.322 270.529 164.749C268.77 164.176 267.161 163.46 265.668 162.794C264.176 162.128 262.791 161.488 261.507 160.974C258.948 159.912 256.738 159.432 255.204 159.314C254.82 159.288 254.479 159.255 254.178 159.255L253.428 159.28C253.02 159.288 252.803 159.288 252.803 159.28C252.803 159.263 253.011 159.238 253.42 159.196C253.637 159.179 253.887 159.154 254.178 159.128C254.479 159.128 254.829 159.145 255.212 159.154C256.772 159.221 259.023 159.668 261.616 160.696C262.925 161.193 264.309 161.816 265.81 162.474C267.311 163.131 268.911 163.822 270.646 164.378C272.38 164.934 274.264 165.33 276.24 165.33C278.217 165.33 280.251 164.926 282.244 164.269C286.254 162.954 289.756 160.873 293.091 159.305C296.41 157.704 299.62 156.617 302.43 156.415C305.231 156.154 307.507 156.659 308.958 157.232C310.409 157.831 311.084 158.404 311.084 158.404L311.093 158.395Z" fill="#FAFAFA"/>
<path d="M197.215 136.857C197.215 136.857 197.332 136.747 197.615 136.663C197.89 136.579 198.34 136.545 198.874 136.713C199.399 136.882 200.008 137.244 200.517 137.868C201.025 138.483 201.409 139.3 201.842 140.16C202.259 141.028 202.851 141.896 203.685 142.637C204.51 143.387 205.586 143.952 206.77 144.356C209.163 145.165 211.998 145.216 214.891 144.752C217.793 144.323 220.569 143.724 223.154 143.75C225.747 143.708 228.057 144.5 229.691 145.578C231.358 146.648 232.292 148.047 232.667 149.075C233.051 150.112 233.018 150.744 233.018 150.744C232.959 150.752 232.934 150.137 232.509 149.143C232.092 148.165 231.15 146.842 229.516 145.839C227.906 144.82 225.672 144.087 223.146 144.146C220.611 144.146 217.868 144.744 214.941 145.182C212.031 145.654 209.096 145.595 206.637 144.736C205.411 144.306 204.302 143.699 203.443 142.899C202.576 142.115 201.967 141.171 201.559 140.286C201.142 139.402 200.783 138.601 200.325 138.003C199.866 137.413 199.308 137.042 198.816 136.857C197.798 136.486 197.215 136.899 197.215 136.831V136.857Z" fill="#FAFAFA"/>
<path d="M215.301 111.113C215.251 111.197 214.375 110.136 212.391 109.588C211.415 109.318 210.19 109.2 208.855 109.352C207.521 109.504 206.096 109.959 204.662 110.574C203.227 111.197 201.902 111.905 200.668 112.52C199.442 113.135 198.308 113.641 197.324 113.987C196.34 114.332 195.515 114.517 194.94 114.602C194.364 114.686 194.039 114.686 194.039 114.661C194.031 114.585 195.315 114.458 197.224 113.692C198.183 113.312 199.284 112.782 200.501 112.15C201.71 111.518 203.044 110.793 204.503 110.161C205.962 109.529 207.438 109.074 208.83 108.939C210.215 108.796 211.49 108.956 212.491 109.276C213.5 109.596 214.233 110.06 214.684 110.439C215.134 110.818 215.326 111.088 215.309 111.105L215.301 111.113Z" fill="#FAFAFA"/>
<g opacity="0.3">
<path d="M275.674 185.149C286.38 178.88 298.77 171.524 304.948 160.687C308.9 153.76 310.86 145.477 311.627 137.514L313.236 162.246L280.36 188.866L275.674 185.149Z" fill="black"/>
</g>
<g opacity="0.2">
<path d="M247.934 103.335C245.408 112.824 240.572 120.998 233.235 127.452C231.467 129.011 229.541 130.461 227.323 131.228C225.105 131.994 222.529 132.003 220.52 130.773L220.678 130.208L237.337 113.532L247.926 103.335H247.934Z" fill="black"/>
</g>
<path d="M222.805 143.463C222.738 143.438 223.005 142.696 223.23 141.466C223.455 140.235 223.572 138.491 223.272 136.604C222.963 134.716 222.296 133.107 221.688 132.011C221.079 130.916 220.587 130.3 220.645 130.258C220.679 130.225 221.262 130.772 221.946 131.859C222.638 132.938 223.372 134.59 223.697 136.536C224.014 138.483 223.839 140.286 223.53 141.533C223.222 142.78 222.847 143.488 222.805 143.471V143.463Z" fill="#263238"/>
<path d="M218.027 139.216C217.919 139.132 219.37 137.598 220.012 135.154C220.695 132.728 220.237 130.655 220.37 130.638C220.42 130.629 220.604 131.118 220.704 131.969C220.804 132.812 220.77 134.008 220.429 135.272C220.078 136.528 219.503 137.573 218.986 138.247C218.469 138.921 218.061 139.25 218.027 139.216Z" fill="#263238"/>
<path d="M249.043 121.798C249.16 121.79 249.843 128.506 250.569 136.798C251.294 145.098 251.786 151.831 251.661 151.839C251.544 151.848 250.861 145.132 250.135 136.84C249.41 128.548 248.918 121.807 249.043 121.798Z" fill="#263238"/>
<path d="M293.558 95.979C293.558 95.979 293.633 96.1307 293.733 96.434C293.85 96.7374 293.967 97.1924 294.1 97.7907C294.342 98.9789 294.467 100.782 294.017 102.939C293.55 105.063 292.466 107.566 290.382 109.605C288.331 111.661 285.212 112.984 281.885 113.068C278.559 113.136 275.382 111.947 273.239 109.984C271.071 108.038 269.879 105.594 269.32 103.487C268.778 101.355 268.828 99.5519 269.02 98.3469C269.12 97.7486 269.22 97.2851 269.32 96.9818C269.412 96.6784 269.462 96.5183 269.479 96.5183C269.529 96.5352 269.32 97.1756 269.187 98.3722C269.053 99.5603 269.053 101.338 269.62 103.403C270.204 105.451 271.396 107.818 273.506 109.672C275.582 111.551 278.65 112.681 281.877 112.622C285.095 112.537 288.114 111.273 290.107 109.302C292.133 107.347 293.225 104.928 293.717 102.864C294.192 100.765 294.117 98.9957 293.925 97.816C293.742 96.6279 293.5 95.9959 293.55 95.979H293.558Z" fill="#263238"/>
<path d="M341.993 146.749C341.876 146.749 341.685 144.381 341.86 141.457C342.018 138.533 342.477 136.199 342.585 136.216C342.71 136.233 342.452 138.575 342.293 141.483C342.126 144.381 342.126 146.741 341.993 146.749Z" fill="#263238"/>
<path d="M345.345 148.275C345.295 148.291 345.003 147.643 344.637 146.556C344.27 145.469 343.828 143.935 343.478 142.216C343.127 140.497 342.927 138.913 342.844 137.767C342.752 136.621 342.769 135.904 342.827 135.904C342.961 135.896 343.202 138.719 343.911 142.132C344.603 145.544 345.479 148.232 345.362 148.283L345.345 148.275Z" fill="#263238"/>
<path d="M311.627 148.763C311.511 148.763 311.236 144.019 311.019 138.162C310.802 132.298 310.719 127.545 310.844 127.545C310.96 127.545 311.236 132.289 311.452 138.146C311.669 144.002 311.752 148.763 311.627 148.763Z" fill="#263238"/>
<path d="M281.742 111.737C275.489 111.619 270.411 106.605 270.153 100.285C269.961 95.6673 269.803 91.4287 269.803 91.4287C269.803 91.4287 260.239 90.4006 259.664 80.8196C259.088 71.2301 259.672 49.127 259.672 49.127C270.428 43.8182 283.185 44.8042 293.015 51.714L294.474 52.742L293.782 99.9733C293.682 106.588 288.288 111.863 281.742 111.737Z" fill="#FFBE9D"/>
<path d="M269.778 91.2936C269.778 91.2936 275.798 91.4959 281.976 87.1309C281.976 87.1309 279.383 94.1755 269.87 93.7795L269.77 91.2936H269.778Z" fill="#EB996E"/>
<path d="M293.783 62.736C293.942 62.6602 300.212 60.4693 300.32 67.0336C300.428 73.5979 293.883 72.3592 293.867 72.1654C293.85 71.9716 293.783 62.736 293.783 62.736Z" fill="#FFBE9D"/>
<path d="M295.809 69.6456C295.809 69.6456 295.925 69.7215 296.117 69.8057C296.309 69.89 296.626 69.9406 296.968 69.8057C297.651 69.5361 298.21 68.4322 298.218 67.244C298.218 66.6458 298.093 66.0812 297.876 65.6093C297.668 65.129 297.359 64.8003 297.009 64.7413C296.667 64.6655 296.426 64.8762 296.342 65.07C296.259 65.2554 296.301 65.3818 296.267 65.3986C296.25 65.4155 296.125 65.2891 296.175 65.0194C296.2 64.8846 296.276 64.7329 296.426 64.6065C296.576 64.4717 296.809 64.4043 297.051 64.4296C297.551 64.4548 298.01 64.9183 298.252 65.4239C298.518 65.9379 298.685 66.5783 298.677 67.244C298.66 68.567 298.01 69.8142 297.076 70.1091C296.617 70.2355 296.234 70.1091 296.034 69.949C295.834 69.7889 295.792 69.6456 295.817 69.6288L295.809 69.6456Z" fill="#EB996E"/>
<path d="M264.208 63.6296C264.183 64.3543 264.766 64.9695 265.517 65.0116C266.267 65.0537 266.893 64.4976 266.918 63.7729C266.943 63.0482 266.359 62.433 265.609 62.3909C264.858 62.3488 264.233 62.9049 264.208 63.6296Z" fill="#263238"/>
<path d="M262.557 62.2643C262.724 62.4413 263.749 61.6745 265.217 61.6745C266.676 61.6576 267.743 62.416 267.902 62.239C267.977 62.1632 267.81 61.8346 267.343 61.4891C266.884 61.1436 266.101 60.8149 265.192 60.8149C264.283 60.8149 263.516 61.1604 263.074 61.5059C262.624 61.8514 262.474 62.1801 262.557 62.2559V62.2643Z" fill="#263238"/>
<path d="M278.231 63.7981C278.206 64.5228 278.79 65.1379 279.54 65.1801C280.291 65.2222 280.916 64.666 280.941 63.9413C280.966 63.2166 280.382 62.6015 279.632 62.5594C278.882 62.5172 278.256 63.0734 278.231 63.7981Z" fill="#263238"/>
<path d="M276.915 62.5339C277.081 62.7108 278.115 61.944 279.574 61.944C281.033 61.9271 282.101 62.6855 282.259 62.5086C282.334 62.4327 282.167 62.1041 281.7 61.7586C281.242 61.4131 280.458 61.0845 279.549 61.0845C278.64 61.0845 277.873 61.43 277.431 61.7755C276.981 62.1209 276.831 62.4496 276.915 62.5254V62.5339Z" fill="#263238"/>
<path d="M271.612 73.4799C271.612 73.3957 270.711 73.2356 269.244 73.0502C268.869 73.008 268.518 72.9322 268.452 72.6794C268.36 72.4097 268.518 71.9968 268.702 71.5587C269.052 70.6486 269.419 69.688 269.802 68.6852C271.337 64.5983 272.445 61.2445 272.279 61.1771C272.112 61.1181 270.745 64.3792 269.21 68.4661C268.844 69.4773 268.493 70.4379 268.151 71.3564C268.01 71.7862 267.768 72.2665 267.96 72.8311C268.06 73.1092 268.335 73.3198 268.577 73.3788C268.819 73.4547 269.027 73.4547 269.21 73.4715C270.695 73.5558 271.612 73.5558 271.612 73.4715V73.4799Z" fill="#263238"/>
<path d="M275.914 74.5C275.68 74.4832 275.672 76.0842 274.313 77.2218C272.962 78.3594 271.27 78.1825 271.253 78.41C271.228 78.5111 271.628 78.7218 272.345 78.7386C273.046 78.7639 274.063 78.5364 274.897 77.837C275.722 77.1376 276.081 76.2106 276.131 75.5533C276.189 74.8876 276.014 74.4832 275.906 74.5H275.914Z" fill="#263238"/>
<path d="M276.532 56.7531C276.674 57.1576 278.133 56.9637 279.851 57.1744C281.568 57.3514 282.952 57.857 283.178 57.4946C283.278 57.3261 283.036 56.9469 282.477 56.5593C281.927 56.1716 281.043 55.8009 280.009 55.6829C278.984 55.5733 278.041 55.7334 277.416 55.9947C276.791 56.2475 276.474 56.5677 276.532 56.7531Z" fill="#263238"/>
<path d="M263.1 57.9918C263.358 58.3289 264.359 57.975 265.576 57.9665C266.785 57.9075 267.811 58.194 268.044 57.8401C268.144 57.6716 267.986 57.3345 267.536 57.0143C267.094 56.6941 266.36 56.4413 265.526 56.4666C264.692 56.4919 263.975 56.7952 263.55 57.1407C263.125 57.4862 262.983 57.8317 263.1 57.9918Z" fill="#263238"/>
<path d="M254.829 42.7901C254.728 41.602 255.162 40.3211 256.121 39.6217C257.08 38.9223 258.564 38.9644 259.348 39.8661C258.897 38.265 260.198 36.4112 261.841 36.31C263.392 36.2089 264.709 37.3971 266.21 37.81C267.669 38.2145 269.236 37.8605 270.645 37.296C272.055 36.7229 273.364 35.9308 274.789 35.4084C277.758 34.3129 281.151 34.4478 284.028 35.7792C286.904 37.1106 289.214 39.6217 290.331 42.6132C292.407 41.9559 294.767 43.0261 296.051 44.8041C297.335 46.5821 297.66 48.9163 297.41 51.1072C297.235 52.5819 296.818 54.0144 296.326 55.4132C296.326 55.5396 296.334 55.6576 296.334 55.784C296.234 61.0675 295.642 67.261 293.416 67.3032C289.531 67.3622 290.456 59.9636 290.456 59.9636C285.687 58.1013 287.463 50.8797 286.271 49.7842C285.078 48.6888 282.585 46.1439 272.605 51.301C268.728 53.3065 263.575 53.2391 260.765 52.5987C260.682 52.5818 260.598 52.565 260.515 52.5481C260.498 52.5481 260.473 52.5481 260.457 52.5397C260.423 52.5397 260.407 52.5144 260.373 52.506C259.473 52.2701 258.614 51.9161 257.813 51.4105C256.913 50.8291 256.088 50.0539 255.704 49.0427C255.32 48.0315 255.462 46.7759 256.246 46.0344C255.512 45.099 254.929 43.9951 254.829 42.807V42.7901Z" fill="#263238"/>
</g>
<defs>
<clipPath id="clip0_427_965">
<rect width="553" height="347" fill="white"/>
</clipPath>
</defs>
</svg>
