<svg width="22" height="15" viewBox="0 0 22 15" fill="none" xmlns="http://www.w3.org/2000/svg">
<g clip-path="url(#clip0_427_904)">
<path d="M1.92068 14.8537C1.55062 14.8537 1.19573 14.7021 0.93406 14.4323C0.672394 14.1624 0.525391 13.7965 0.525391 13.4148L0.525391 1.90373C0.525391 1.52212 0.672394 1.15613 0.93406 0.886285C1.19573 0.616441 1.55062 0.464844 1.92068 0.464844L20.0594 0.464844C20.4294 0.464844 20.7843 0.616441 21.046 0.886285C21.3077 1.15613 21.4547 1.52212 21.4547 1.90373V13.4148C21.4547 13.7965 21.3077 14.1624 21.046 14.4323C20.7843 14.7021 20.4294 14.8537 20.0594 14.8537H1.92068ZM6.18851 3.82225C5.70902 4.31085 5.33083 4.89484 5.07689 5.53877C4.82294 6.1827 4.69854 6.87314 4.71125 7.56816V7.56336C4.71092 8.23279 4.8407 8.89549 5.09293 9.51231C5.34517 10.1291 5.71473 10.6876 6.17979 11.1546L6.18095 11.1558C7.11515 12.1161 8.38091 12.6546 9.69998 12.6528H12.097C13.4408 12.6402 14.7305 12.1047 15.7078 11.1534L15.7049 11.1558C16.1938 10.7023 16.5861 10.1492 16.857 9.53135C17.1279 8.9135 17.2715 8.24439 17.2787 7.56636V7.52559C17.2795 6.8296 17.1396 6.14107 16.8679 5.50395C16.5962 4.86683 16.1988 4.29511 15.7009 3.82525L15.6974 3.82165C15.2227 3.3721 14.6717 3.01681 14.0719 2.77366L14.0364 2.76107C13.4131 2.50888 12.7491 2.38052 12.0795 2.38276H9.66975C8.37169 2.38089 7.1233 2.89718 6.18618 3.82345L6.18793 3.82165L6.18851 3.82225ZM5.18507 7.50641C5.1846 6.25979 5.66437 5.06404 6.51882 4.18222C7.37327 3.30039 8.53242 2.80471 9.74126 2.80424C10.9501 2.80376 12.1096 3.29852 12.9647 4.17967C13.8198 5.06083 14.3005 6.25619 14.3009 7.50281C14.3016 8.74943 13.8221 9.94527 12.9678 10.8273C12.1135 11.7093 10.9545 12.2052 9.74562 12.2059C8.53678 12.2066 7.37717 11.7121 6.5219 10.8311C5.66663 9.9501 5.18576 8.75482 5.18507 7.50821V7.50641ZM10.7767 10.2883C11.872 9.8482 12.6347 8.76903 12.6347 7.50641C12.6347 6.24378 11.8726 5.16462 10.7964 4.73175L10.7767 4.72455V10.2883ZM6.85476 7.50641C6.85496 8.10528 7.02997 8.69022 7.35701 9.18509C7.68405 9.67997 8.14797 10.0619 8.6884 10.2811L8.70816 10.2883V4.72635C7.61577 5.16941 6.85592 6.24738 6.85476 7.50821V7.50641Z" fill="white"/>
</g>
<defs>
<clipPath id="clip0_427_904">
<rect width="20.9293" height="14.3889" fill="white" transform="translate(0.525391 0.464844)"/>
</clipPath>
</defs>
</svg>
