<svg width="15" height="19" viewBox="0 0 15 19" fill="none" xmlns="http://www.w3.org/2000/svg">
<path d="M9.83333 13.1897V15.4269C9.83333 15.9005 9.69792 16.1373 9.42708 16.1373C9.26736 16.1373 9.11111 16.0595 8.95833 15.904V12.7126C9.11111 12.5571 9.26736 12.4794 9.42708 12.4794C9.69792 12.4794 9.83333 12.7161 9.83333 13.1897ZM13.3542 13.2003V13.6881H12.4167V13.2003C12.4167 12.7197 12.5729 12.4794 12.8854 12.4794C13.1979 12.4794 13.3542 12.7197 13.3542 13.2003ZM3.29167 10.889H4.40625V9.8923H1.15625V10.889H2.25V16.9219H3.29167V10.889ZM6.29167 16.9219H7.21875V11.6842H6.29167V15.692C6.08333 15.9888 5.88542 16.1373 5.69792 16.1373C5.57292 16.1373 5.5 16.0631 5.47917 15.9146C5.47222 15.8934 5.46875 15.7697 5.46875 15.5435V11.6842H4.54167V15.8298C4.54167 16.1762 4.56944 16.4342 4.625 16.6038C4.70833 16.8653 4.90972 16.9961 5.22917 16.9961C5.5625 16.9961 5.91667 16.7805 6.29167 16.3493V16.9219ZM10.7604 15.3527V13.264C10.7604 12.748 10.7292 12.3981 10.6667 12.2143C10.5486 11.8185 10.3021 11.6205 9.92708 11.6205C9.57986 11.6205 9.25694 11.8114 8.95833 12.1931V9.8923H8.03125V16.9219H8.95833V16.4129C9.27083 16.8017 9.59375 16.9961 9.92708 16.9961C10.3021 16.9961 10.5486 16.8017 10.6667 16.4129C10.7292 16.2221 10.7604 15.8687 10.7604 15.3527ZM14.2812 15.2467V15.1088H13.3333C13.3333 15.4693 13.3264 15.6849 13.3125 15.7556C13.2639 16.01 13.125 16.1373 12.8958 16.1373C12.5764 16.1373 12.4167 15.8934 12.4167 15.4057V14.4833H14.2812V13.3912C14.2812 12.8328 14.1875 12.4228 14 12.1613C13.7292 11.8008 13.3611 11.6205 12.8958 11.6205C12.4236 11.6205 12.0521 11.8008 11.7812 12.1613C11.5868 12.4228 11.4896 12.8328 11.4896 13.3912V15.2254C11.4896 15.7839 11.5903 16.1938 11.7917 16.4554C12.0625 16.8158 12.4375 16.9961 12.9167 16.9961C13.4167 16.9961 13.7917 16.8088 14.0417 16.4342C14.1667 16.2433 14.2396 16.0525 14.2604 15.8616C14.2743 15.798 14.2812 15.593 14.2812 15.2467ZM7.94792 5.56641V3.33984C7.94792 2.85212 7.79861 2.60826 7.5 2.60826C7.20139 2.60826 7.05208 2.85212 7.05208 3.33984V5.56641C7.05208 6.0612 7.20139 6.30859 7.5 6.30859C7.79861 6.30859 7.94792 6.0612 7.94792 5.56641ZM15.4375 13.529C15.4375 15.183 15.3472 16.42 15.1667 17.24C15.0694 17.657 14.8681 18.0069 14.5625 18.2896C14.2569 18.5724 13.9028 18.7349 13.5 18.7773C12.2222 18.9258 10.2951 19 7.71875 19C5.14236 19 3.21528 18.9258 1.9375 18.7773C1.53472 18.7349 1.17882 18.5724 0.869792 18.2896C0.560764 18.0069 0.361111 17.657 0.270833 17.24C0.0902778 16.4483 0 15.2113 0 13.529C0 11.875 0.0902778 10.638 0.270833 9.81808C0.368056 9.40104 0.569444 9.05115 0.875 8.76841C1.18056 8.48568 1.53819 8.31957 1.94792 8.27009C3.21875 8.12872 5.14236 8.05804 7.71875 8.05804C10.2951 8.05804 12.2222 8.12872 13.5 8.27009C13.9028 8.31957 14.2587 8.48568 14.5677 8.76841C14.8767 9.05115 15.0764 9.40104 15.1667 9.81808C15.3472 10.6097 15.4375 11.8467 15.4375 13.529ZM5.04167 0H6.10417L4.84375 4.23047V7.10379H3.80208V4.23047C3.70486 3.7074 3.49306 2.95815 3.16667 1.9827C2.90972 1.25465 2.68403 0.59375 2.48958 0H3.59375L4.33333 2.7885L5.04167 0ZM8.89583 3.53069V5.38616C8.89583 5.9587 8.79861 6.37574 8.60417 6.63728C8.34028 6.99777 7.97222 7.17801 7.5 7.17801C7.03472 7.17801 6.67014 6.99777 6.40625 6.63728C6.21181 6.36868 6.11458 5.95164 6.11458 5.38616V3.53069C6.11458 2.96522 6.21181 2.55171 6.40625 2.29018C6.67014 1.92969 7.03472 1.74944 7.5 1.74944C7.97222 1.74944 8.34028 1.92969 8.60417 2.29018C8.79861 2.55171 8.89583 2.96522 8.89583 3.53069ZM12.3854 1.81306V7.10379H11.4375V6.52065C11.0694 6.95889 10.7118 7.17801 10.3646 7.17801C10.0451 7.17801 9.84028 7.04725 9.75 6.78571C9.69444 6.61607 9.66667 6.351 9.66667 5.99051V1.81306H10.6146V5.70424C10.6146 5.9375 10.6181 6.0612 10.625 6.07533C10.6458 6.23084 10.7188 6.30859 10.8438 6.30859C11.0312 6.30859 11.2292 6.15662 11.4375 5.85268V1.81306H12.3854Z" fill="black"/>
</svg>
