<svg width="23" height="17" viewBox="0 0 23 17" fill="none" xmlns="http://www.w3.org/2000/svg">
<path d="M14.3757 0.833332C13.359 0.833332 12.384 1.2372 11.6651 1.95609C10.9462 2.67498 10.5423 3.65 10.5423 4.66667C10.5423 5.68333 10.9462 6.65835 11.6651 7.37724C12.384 8.09613 13.359 8.5 14.3757 8.5C15.3923 8.5 16.3673 8.09613 17.0862 7.37724C17.8051 6.65835 18.209 5.68333 18.209 4.66667C18.209 3.65 17.8051 2.67498 17.0862 1.95609C16.3673 1.2372 15.3923 0.833332 14.3757 0.833332ZM14.3757 2.65417C14.6399 2.65417 14.9016 2.70622 15.1458 2.80736C15.39 2.9085 15.6118 3.05673 15.7987 3.24361C15.9856 3.43049 16.1338 3.65235 16.235 3.89651C16.3361 4.14068 16.3882 4.40238 16.3882 4.66667C16.3882 4.93095 16.3361 5.19265 16.235 5.43682C16.1338 5.68098 15.9856 5.90284 15.7987 6.08972C15.6118 6.2766 15.39 6.42484 15.1458 6.52597C14.9016 6.62711 14.6399 6.67917 14.3757 6.67917C14.1114 6.67917 13.8497 6.62711 13.6055 6.52597C13.3613 6.42484 13.1395 6.2766 12.9526 6.08972C12.7657 5.90284 12.6175 5.68098 12.5163 5.43682C12.4152 5.19265 12.3631 4.93095 12.3631 4.66667C12.3631 4.13292 12.5752 3.62103 12.9526 3.24361C13.33 2.8662 13.8419 2.65417 14.3757 2.65417ZM3.83398 3.70833V6.58333H0.958984V8.5H3.83398V11.375H5.75065V8.5H8.62565V6.58333H5.75065V3.70833H3.83398ZM14.3757 9.45833C11.8169 9.45833 6.70898 10.7329 6.70898 13.2917V16.1667H22.0423V13.2917C22.0423 10.7329 16.9344 9.45833 14.3757 9.45833ZM14.3757 11.2792C17.2219 11.2792 20.2215 12.6783 20.2215 13.2917V14.3458H8.52982V13.2917C8.52982 12.6783 11.5007 11.2792 14.3757 11.2792Z" fill="white"/>
</svg>
