<svg width="32" height="32" viewBox="0 0 32 32" fill="none" xmlns="http://www.w3.org/2000/svg">
<path fill-rule="evenodd" clip-rule="evenodd" d="M9.57477 0.510004C11.2365 0.433504 11.7663 0.416504 15.9993 0.416504C20.2323 0.416504 20.7622 0.434921 22.4225 0.510004C24.0828 0.585087 25.2162 0.850004 26.2078 1.23392C27.2463 1.62634 28.1883 2.23975 28.9675 3.03309C29.7608 3.81084 30.3728 4.7515 30.7638 5.79134C31.1492 6.783 31.4127 7.91634 31.4892 9.57384C31.5657 11.2384 31.5827 11.7683 31.5827 15.9998C31.5827 20.2328 31.5643 20.7627 31.4892 22.4244C31.4141 24.0819 31.1492 25.2153 30.7638 26.2069C30.3728 27.2469 29.7598 28.1891 28.9675 28.968C28.1883 29.7613 27.2463 30.3733 26.2078 30.7643C25.2162 31.1497 24.0828 31.4132 22.4253 31.4897C20.7622 31.5662 20.2323 31.5832 15.9993 31.5832C11.7663 31.5832 11.2365 31.5648 9.57477 31.4897C7.91727 31.4146 6.78393 31.1497 5.79227 30.7643C4.75232 30.3733 3.81009 29.7603 3.03118 28.968C2.23839 28.1898 1.62488 27.248 1.23343 26.2083C0.849516 25.2167 0.586016 24.0833 0.509516 22.4258C0.433016 20.7613 0.416016 20.2314 0.416016 15.9998C0.416016 11.7668 0.434432 11.237 0.509516 9.57667C0.584599 7.91634 0.849516 6.783 1.23343 5.79134C1.62546 4.75162 2.23943 3.80986 3.0326 3.03167C3.81041 2.23905 4.75168 1.62555 5.79085 1.23392C6.78252 0.850004 7.91727 0.586504 9.57477 0.510004ZM22.2964 3.315C20.6531 3.23992 20.1601 3.22434 15.9993 3.22434C11.8386 3.22434 11.3456 3.23992 9.70227 3.315C8.18218 3.38442 7.35768 3.638 6.80802 3.85192C6.08127 4.13525 5.56135 4.471 5.01593 5.01642C4.49891 5.51941 4.10102 6.13174 3.85143 6.8085C3.63752 7.35817 3.38393 8.18267 3.31452 9.70275C3.23943 11.3461 3.22385 11.8391 3.22385 15.9998C3.22385 20.1606 3.23943 20.6536 3.31452 22.2969C3.38393 23.817 3.63752 24.6415 3.85143 25.1912C4.10077 25.8669 4.49885 26.4803 5.01593 26.9833C5.51885 27.5003 6.13227 27.8984 6.80802 28.1478C7.35768 28.3617 8.18218 28.6153 9.70227 28.6847C11.3456 28.7598 11.8372 28.7753 15.9993 28.7753C20.1615 28.7753 20.6531 28.7598 22.2964 28.6847C23.8165 28.6153 24.641 28.3617 25.1907 28.1478C25.9174 27.8644 26.4373 27.5287 26.9828 26.9833C27.4998 26.4803 27.8979 25.8669 28.1473 25.1912C28.3612 24.6415 28.6148 23.817 28.6842 22.2969C28.7593 20.6536 28.7748 20.1606 28.7748 15.9998C28.7748 11.8391 28.7593 11.3461 28.6842 9.70275C28.6148 8.18267 28.3612 7.35817 28.1473 6.8085C27.8639 6.08175 27.5282 5.56184 26.9828 5.01642C26.4797 4.49944 25.8674 4.10155 25.1907 3.85192C24.641 3.638 23.8165 3.38442 22.2964 3.315ZM14.0089 20.8038C15.1205 21.2665 16.3583 21.3289 17.5108 20.9804C18.6634 20.632 19.6592 19.8941 20.3281 18.893C20.9971 17.8919 21.2978 16.6896 21.1787 15.4914C21.0597 14.2932 20.5284 13.1735 19.6756 12.3236C19.1319 11.7803 18.4746 11.3642 17.7508 11.1055C17.0271 10.8467 16.255 10.7516 15.4901 10.827C14.7251 10.9025 13.9865 11.1466 13.3272 11.5418C12.668 11.937 12.1046 12.4734 11.6775 13.1125C11.2505 13.7515 10.9704 14.4773 10.8576 15.2376C10.7447 15.9979 10.8018 16.7738 11.0248 17.5093C11.2477 18.2449 11.631 18.9219 12.147 19.4915C12.663 20.0612 13.2989 20.5093 14.0089 20.8038ZM10.3355 10.336C11.0793 9.59222 11.9623 9.00222 12.9341 8.59968C13.9059 8.19715 14.9475 7.98997 15.9993 7.98997C17.0512 7.98997 18.0928 8.19715 19.0646 8.59968C20.0364 9.00222 20.9194 9.59222 21.6632 10.336C22.407 11.0798 22.997 11.9628 23.3995 12.9346C23.802 13.9064 24.0092 14.948 24.0092 15.9998C24.0092 17.0517 23.802 18.0933 23.3995 19.0651C22.997 20.0369 22.407 20.9199 21.6632 21.6637C20.161 23.1658 18.1237 24.0097 15.9993 24.0097C13.875 24.0097 11.8377 23.1658 10.3355 21.6637C8.83337 20.1615 7.98948 18.1242 7.98948 15.9998C7.98948 13.8755 8.83337 11.8381 10.3355 10.336ZM25.7857 9.18284C25.97 9.00897 26.1176 8.79989 26.2196 8.56797C26.3217 8.33605 26.3762 8.08601 26.3799 7.83265C26.3835 7.5793 26.3364 7.32778 26.2411 7.09298C26.1459 6.85819 26.0045 6.64489 25.8253 6.46573C25.6461 6.28656 25.4328 6.14516 25.198 6.0499C24.9632 5.95465 24.7117 5.90747 24.4584 5.91116C24.205 5.91486 23.955 5.96935 23.7231 6.07141C23.4911 6.17347 23.2821 6.32102 23.1082 6.50534C22.77 6.8638 22.5849 7.33993 22.5921 7.83265C22.5993 8.32538 22.7982 8.79592 23.1467 9.14436C23.4951 9.49281 23.9656 9.69174 24.4584 9.69893C24.9511 9.70611 25.4272 9.52098 25.7857 9.18284Z" fill="white"/>
</svg>
