<svg width="38" height="14" viewBox="0 0 38 14" fill="none" xmlns="http://www.w3.org/2000/svg">
<g clip-path="url(#clip0_427_891)">
<path d="M6.34556 3.34289C6.76773 3.21235 7.20989 3.14611 7.65488 3.14674C9.65201 3.14674 11.3194 4.46346 11.7014 6.21363L14.5325 5.67758C13.8827 2.70326 11.051 0.464847 7.65488 0.464847C6.89855 0.464192 6.1471 0.577207 5.42969 0.799503L6.34556 3.34289Z" fill="white"/>
<path d="M3.00534 11.8595L4.91985 9.85036C4.06528 9.14758 3.52604 8.12196 3.52604 6.97929C3.52604 5.83747 4.06449 4.81232 4.91856 4.11041L3.00391 2.10107C1.55252 3.29455 0.636719 5.03788 0.636719 6.97929C0.636719 8.92189 1.55288 10.6657 3.00534 11.8595Z" fill="white"/>
<path d="M11.7012 7.74805C11.3176 9.49736 9.65199 10.8115 7.65543 10.8115C7.19724 10.8115 6.75608 10.743 6.34489 10.6147L5.42773 13.1591C6.12728 13.3758 6.87633 13.4932 7.65543 13.4932C11.0482 13.4932 13.8797 11.2586 14.5319 8.28695L11.7012 7.74805Z" fill="white"/>
<path d="M17.0093 9.93489C16.9165 9.79545 16.7904 9.57234 16.7145 9.4082C16.2662 8.44208 16.2448 7.4423 16.6234 6.48255C17.0397 5.42998 17.8349 4.62414 18.8623 4.21386C20.154 3.69786 21.5827 3.79959 22.8207 4.48145C23.6071 4.90024 24.1647 5.54684 24.588 6.46104L24.6273 6.54994L24.7006 6.72657C24.7124 6.75505 24.724 6.78274 24.7355 6.8093L17.0092 9.93489H17.0093ZM19.5892 5.76476C18.6719 6.13069 18.199 6.92942 18.2962 7.86593L22.182 6.31363C21.5138 5.58462 20.6441 5.34306 19.5892 5.76476ZM24.1685 10.0744L22.6665 9.14227L22.6644 9.14433L22.5839 9.094C22.3521 9.44326 21.9902 9.72612 21.5338 9.90985C20.6652 10.2604 19.8602 10.1703 19.2822 9.69976L19.2291 9.7748C19.2285 9.77393 19.2284 9.77327 19.2274 9.77327L18.2416 11.1422C18.4868 11.3004 18.7495 11.434 19.0251 11.5406C20.1141 11.9605 21.2282 11.941 22.3259 11.4979C23.1198 11.1786 23.7428 10.6916 24.1685 10.0743V10.0744ZM27.4361 2.19775V9.80853L28.7109 10.2881L27.9865 11.8569L26.5794 11.313C26.2635 11.1861 26.0486 10.9918 25.8858 10.7725C25.7302 10.549 25.6138 10.2423 25.6138 9.82924V2.19775H27.4361ZM30.7385 7.86965C30.7392 7.22158 31.0476 6.64038 31.5354 6.24537L30.2276 4.89174C29.3405 5.61948 28.7818 6.68294 28.7808 7.86779C28.7794 9.05303 29.3372 10.1176 30.2233 10.8472L31.5297 9.49226C31.0442 9.09572 30.738 8.51625 30.7385 7.86965ZM33.0623 10.0298C32.8048 10.0292 32.5568 9.98967 32.3255 9.91822L31.7009 11.642C32.1391 11.7783 32.5981 11.8479 33.0602 11.8482C35.1311 11.8501 36.8603 10.4862 37.2609 8.67315L35.3411 8.30928C35.1228 9.292 34.1853 10.0305 33.0623 10.0298ZM33.068 3.8952C32.6065 3.89436 32.1479 3.96289 31.7099 4.09812L32.3291 5.82346C32.5668 5.75042 32.8157 5.71316 33.0662 5.71311C34.1918 5.7141 35.13 6.45698 35.3431 7.44249L37.2632 7.08101C36.868 5.2653 35.1405 3.8964 33.0679 3.8952H33.068Z" fill="white"/>
</g>
<defs>
<clipPath id="clip0_427_891">
<rect width="36.6263" height="13.0808" fill="white" transform="translate(0.636719 0.464844)"/>
</clipPath>
</defs>
</svg>
