<svg width="33" height="15" viewBox="0 0 33 15" fill="none" xmlns="http://www.w3.org/2000/svg">
<g clip-path="url(#clip0_427_898)">
<path d="M9.59292 0.464844H6.33917C4.90155 0.536401 3.72636 1.1457 3.38704 2.40225C3.21014 3.05762 3.11277 3.77726 2.97438 4.45663C2.27108 7.9108 1.64737 11.46 0.974609 14.8452H26.3056C28.264 14.8452 29.6085 14.4097 29.9719 12.7742C30.1407 12.0143 30.3024 11.1537 30.4639 10.319C31.0935 7.06425 31.7237 3.80965 32.3685 0.464844H9.59292Z" fill="white"/>
<path d="M22.6614 9.05665C22.31 9.41857 21.3239 9.52136 21.4248 8.65628C21.5086 7.93774 22.252 7.78508 23.0577 7.88883C22.9978 8.28185 22.9291 8.78088 22.6614 9.05672V9.05665ZM21.5515 6.25392C21.5181 6.45214 21.4666 6.63151 21.4248 6.82109C21.827 6.71501 23.0797 6.38961 23.2004 6.95459C23.2405 7.14235 23.1713 7.34173 23.1211 7.48846C21.9884 7.37554 21.0651 7.57363 20.8224 8.42271C20.6597 8.99142 20.8406 9.5511 21.187 9.70738C21.8542 10.0081 22.6658 9.6635 22.9467 9.19016C22.9176 9.35405 22.8899 9.51955 22.8992 9.72403H23.4857C23.492 9.13286 23.5737 8.65435 23.6601 8.12241C23.7338 7.66945 23.8724 7.22094 23.8503 6.82115C23.8 5.90555 22.3585 6.2294 21.5515 6.25398V6.25392ZM27.4333 9.34024C26.9743 9.35056 26.7461 9.05175 26.7357 8.55621C26.7174 7.68836 27.0792 6.72411 27.8137 6.63764C28.1557 6.59738 28.4033 6.68107 28.6539 6.77114C28.4239 7.74598 28.507 9.31598 27.4333 9.34024ZM28.9551 4.75251C28.8967 5.29154 28.8186 5.80999 28.7174 6.30392C27.0452 5.74702 26.0197 7.04163 26.0381 8.63957C26.0417 8.94864 26.0923 9.25513 26.276 9.47367C26.5925 9.8505 27.4989 9.94057 27.9564 9.62389C28.0451 9.56259 28.1355 9.45109 28.1943 9.37366C28.2383 9.3154 28.3084 9.16293 28.321 9.20674C28.297 9.37611 28.261 9.53297 28.2577 9.72403H28.876C28.995 7.92529 29.3636 6.3889 29.6369 4.75244H28.9552L28.9551 4.75251ZM11.5006 9.07337C11.1358 9.47987 10.2392 9.47361 10.1689 8.78972C10.1383 8.49213 10.2437 8.18009 10.2957 7.87218C10.3484 7.56053 10.3863 7.26153 10.4383 6.98795C10.7976 6.52634 11.8532 6.47066 11.9603 7.23823C12.0533 7.90464 11.8026 8.73674 11.5006 9.07337ZM12.0396 6.25392C11.4626 6.02589 10.7594 6.29812 10.4546 6.55712C10.4556 6.56847 10.4474 6.57002 10.4383 6.57093C10.4436 6.56628 10.4492 6.5617 10.4546 6.55712C10.4546 6.55616 10.4544 6.55521 10.4542 6.55428C10.4594 6.44285 10.4967 6.36529 10.5018 6.25392H9.91525C9.67078 7.96529 9.38094 9.62879 9.07497 11.2754H9.75669C9.85534 10.6341 9.92052 9.95761 10.0579 9.35695C10.2136 9.98864 11.2301 9.86798 11.6591 9.62389C12.5442 9.12028 13.2269 6.72327 12.0396 6.25392ZM15.2737 7.4551H13.6725C13.7232 7.06776 14.0543 6.64197 14.5761 6.621C15.0672 6.60119 15.4188 6.8107 15.2737 7.4551ZM14.6237 6.1872C14.1311 6.22714 13.7148 6.37626 13.4189 6.70436C13.0559 7.10673 12.762 7.99633 12.8481 8.80643C12.9709 9.96219 14.3384 9.92076 15.4322 9.64053C15.4508 9.43773 15.4975 9.26436 15.5273 9.07337C15.0767 9.25081 14.2945 9.49845 13.831 9.19016C13.4812 8.95735 13.4791 8.3678 13.5932 7.85547C14.3284 7.83089 15.0924 7.8356 15.8285 7.85547C15.8753 7.49233 16.0089 7.09641 15.8919 6.73779C15.7377 6.26424 15.1856 6.14171 14.6237 6.1872ZM8.6311 6.25392C8.61265 6.25676 8.61387 6.28037 8.61516 6.30392C8.465 7.48607 8.26173 8.61241 8.04449 9.72403H8.7262C8.88998 8.53388 9.07761 7.36896 9.31276 6.25392H8.6311ZM26.4187 6.27057C25.8162 5.95362 25.3147 6.4855 25.1188 6.80444C25.1745 6.64081 25.1777 6.42175 25.2297 6.25392H24.6272C24.4649 7.44549 24.269 8.60182 24.0407 9.72403H24.7382C24.7426 9.2641 24.8285 8.92393 24.8967 8.47278C25.0425 7.50969 25.2565 6.45356 26.3236 6.77114C26.359 6.60822 26.3737 6.42349 26.4187 6.27057ZM18.7614 8.90651C18.6986 8.73571 18.6823 8.45355 18.698 8.2392C18.7333 7.75707 18.9002 7.17023 19.1578 6.90458C19.5133 6.53789 20.2151 6.59854 20.7748 6.80444C20.7922 6.6059 20.8301 6.42884 20.8541 6.23727C19.9361 6.07951 19.0649 6.17765 18.6029 6.68765C18.1508 7.187 17.8543 8.33457 18.0639 9.05665C18.3091 9.9016 19.4088 9.94754 20.2993 9.62389C20.3387 9.45406 20.3595 9.26475 20.3944 9.09001C19.9078 9.35605 18.9777 9.49432 18.7614 8.90651ZM18.381 6.25392C17.7765 5.99705 17.3013 6.43117 17.0811 6.83786C17.1309 6.65694 17.1516 6.44504 17.192 6.25392H16.5895C16.4422 7.45588 16.2252 8.58434 16.0188 9.72403H16.7006C16.7961 9.04749 16.8373 8.13557 17.0493 7.48846C17.2187 6.97136 17.662 6.53079 18.3017 6.77114C18.3107 6.58035 18.3626 6.43472 18.381 6.25392ZM7.39448 4.85258C7.29711 5.5175 7.18741 6.16952 7.07741 6.82115C6.37117 6.82896 5.65009 6.85787 4.96893 6.80437C5.09757 6.16694 5.18985 5.49105 5.31763 4.85252H4.5567C4.28427 6.47898 4.03655 8.13118 3.73242 9.72409H4.50918C4.63107 8.90689 4.745 8.08144 4.90546 7.30508C5.56786 7.28785 6.36173 7.25798 6.99819 7.32173C6.86697 8.12899 6.70835 8.90741 6.58602 9.72409H7.36284C7.61239 8.07376 7.87544 6.43755 8.18723 4.85265H7.39454L7.39448 4.85258ZM9.32858 5.58661C9.46451 5.48815 9.63951 5.03938 9.43956 4.85258C9.37622 4.79341 9.27026 4.77625 9.12255 4.80258C8.98539 4.8269 8.90654 4.87588 8.85301 4.95266C8.7668 5.07609 8.68788 5.44833 8.82124 5.58661C8.95111 5.72127 9.24212 5.6492 9.32858 5.58661Z" fill="black"/>
</g>
<defs>
<clipPath id="clip0_427_898">
<rect width="31.3939" height="14.3889" fill="white" transform="translate(0.974609 0.464844)"/>
</clipPath>
</defs>
</svg>
