<svg width="148" height="34" viewBox="0 0 148 34" fill="none" xmlns="http://www.w3.org/2000/svg">
<g clip-path="url(#clip0_41_21)">
<path d="M46.2182 5.25534C45.9471 4.2395 45.4182 3.3134 44.6843 2.56928C43.9504 1.82516 43.037 1.28898 42.0352 1.01414C38.3672 0 23.6065 0 23.6065 0C23.6065 0 8.84528 0.0307759 5.17794 1.04491C4.17614 1.3198 3.26284 1.856 2.52898 2.60012C1.79512 3.34424 1.26631 4.27031 0.99521 5.28612C-0.114211 11.8941 -0.544626 21.9625 1.02556 28.3059C1.29666 29.3217 1.82547 30.2478 2.55933 30.9919C3.29319 31.736 4.20649 32.2722 5.2083 32.5471C8.87592 33.5612 23.6369 33.5612 23.6369 33.5612C23.6369 33.5612 38.3979 33.5612 42.0655 32.5471C43.0673 32.2722 43.9806 31.736 44.7145 30.9919C45.4483 30.2478 45.9771 29.3217 46.2482 28.3059C47.4181 21.6888 47.7788 11.6265 46.2179 5.25564L46.2182 5.25534Z" fill="#FF0000"/>
<path d="M18.9082 23.9723L31.1535 16.7807L18.9082 9.58887V23.9723Z" fill="white"/>
<path d="M141.999 9.74293C143.605 9.74293 144.818 10.0501 145.666 10.634C146.515 11.2181 147.122 12.1399 147.485 13.4003C147.849 14.6603 148 16.3811 148 18.5941V22.1902H140.211V23.2963L140.332 26.339C140.423 27.0152 140.575 27.507 140.817 27.8142C141.06 28.1217 141.453 28.2753 141.969 28.2753C142.666 28.2753 143.151 27.9989 143.393 27.4458C143.666 26.8924 143.787 25.9703 143.818 24.7103L147.849 24.9562C147.879 25.1405 147.879 25.3864 147.879 25.6936C147.879 27.6299 147.364 29.0746 146.303 30.0272C145.242 30.9797 143.787 31.4716 141.878 31.4716C139.574 31.4716 137.968 30.7341 137.058 29.2897C136.149 27.845 135.664 25.5705 135.664 22.5281V18.8092C135.767 13.5846 136.673 9.75817 141.999 9.74293ZM85.9556 10.1424V25.54C85.9556 26.4621 86.0464 27.1383 86.2586 27.5378C86.689 28.3922 87.8045 28.1739 88.4106 27.753C88.7606 27.5131 89.0427 27.1848 89.229 26.8004V10.1421H93.8664V31.1333H90.2291L89.8351 28.5517H89.7444C88.7442 30.4879 87.2587 31.4713 85.2888 31.4713C82.2565 31.4637 81.5145 29.2484 81.3379 26.9985L81.3263 26.8399C81.3045 26.4992 81.2917 26.1579 81.2878 25.8164V10.1424H85.9553H85.9556ZM109.87 10.1424V25.54C109.87 26.4621 109.961 27.1383 110.173 27.5378C110.604 28.3922 111.719 28.1739 112.325 27.753C112.675 27.5131 112.957 27.1848 113.144 26.8004V10.1421H117.781V31.1333H114.144L113.75 28.5517H113.659C112.659 30.4879 111.173 31.4713 109.203 31.4713C106.171 31.4637 105.429 29.2484 105.253 26.9985L105.241 26.8399C105.219 26.4992 105.206 26.1579 105.203 25.8164V10.1424H109.87ZM72.4977 9.74293C74.0133 9.74293 75.256 10.0501 76.1654 10.6955C77.0745 11.3409 77.7717 12.3246 78.196 13.6767C78.6204 15.0291 78.8325 16.8422 78.8325 19.0859V22.1283C78.8325 24.372 78.6204 26.1547 78.196 27.5068C77.7717 28.8594 77.1048 29.8428 76.1654 30.4882C75.2259 31.1028 73.9526 31.4408 72.3766 31.4408C70.7397 31.4716 69.4666 31.1336 68.5272 30.519C67.5877 29.8736 66.9206 28.8899 66.5269 27.5378C66.1326 26.1854 65.9508 24.4028 65.9508 22.1594V19.1164C65.9508 16.8727 66.1629 15.0288 66.6176 13.6764C67.0723 12.2935 67.7693 11.3099 68.7394 10.6955C69.7092 10.0806 70.9518 9.74264 72.4977 9.74264V9.74293ZM125.056 1.32178V12.3858H125.086C125.51 11.5868 126.056 10.9414 126.814 10.4496C127.521 9.96708 128.355 9.71025 129.208 9.71216C130.33 9.71216 131.178 10.0193 131.815 10.6032C132.451 11.2181 132.906 12.1707 133.179 13.4923C133.443 14.7726 133.593 16.5432 133.603 18.7761L133.603 18.9939V22.313C133.603 25.4169 133.209 27.7222 132.481 29.1974C131.724 30.6726 130.572 31.4103 128.996 31.4103C128.117 31.4103 127.329 31.1952 126.602 30.7957C125.958 30.4156 125.425 29.8705 125.055 29.2153L124.995 29.1051H124.904L124.419 31.1028H120.57V1.32207H125.056V1.32178ZM106.506 2.39747V6.20811H101.899V31.1333H97.3522V6.2084H92.7148V2.39776H106.506L106.506 2.39747ZM56.5241 2.39747L56.527 2.40919C56.5713 2.60879 57.1841 5.37129 57.8582 8.58986L57.9114 8.84486L57.9917 9.23029L58.0455 9.48911L58.0724 9.61895L58.1261 9.87923L58.153 10.0097L58.2065 10.2708L58.2845 10.6527C58.7398 12.8815 59.1743 15.1167 59.4341 16.7194H59.5555C59.8044 15.2817 60.1661 13.4419 60.5517 11.5634L60.6528 11.0727C60.7037 10.8271 60.7546 10.5815 60.806 10.3365L60.8852 9.95631C61.4089 7.46694 61.9482 4.98098 62.5031 2.49859L62.5118 2.45902L62.5257 2.39747H67.1631L61.7981 21.7907V31.1028H57.2214V21.8211H57.191L51.8867 2.39717L56.5241 2.39747ZM72.4067 13.0005C71.7702 13.0005 71.3458 13.3387 71.0732 14.0457C70.8004 14.7524 70.6793 15.8281 70.6793 17.3343V23.8805C70.6793 25.4172 70.8004 26.5542 71.0429 27.2307C71.2854 27.9065 71.7401 28.2448 72.4067 28.2448C73.0432 28.2448 73.4979 27.9065 73.7708 27.2307C74.0436 26.5542 74.1648 25.4172 74.1648 23.8805V17.334C74.1648 15.8281 74.0434 14.7216 73.7708 14.0454C73.4979 13.3387 73.0432 13.0005 72.4067 13.0005ZM125.874 13.6154C125.505 13.9613 125.242 14.3877 125.085 14.9209L125.056 15.0291V26.9537C125.431 27.5991 125.965 28.0294 126.905 28.0601C127.39 28.0601 127.783 27.8758 128.087 27.5071C128.39 27.1383 128.602 26.5234 128.723 25.6628C128.839 24.8369 128.9 23.6991 128.905 22.2499V19.3318C128.905 17.6723 128.844 16.4122 128.753 15.5209C128.632 14.6296 128.481 13.9841 128.208 13.6154C127.68 12.8469 126.541 12.8563 125.874 13.6154ZM141.908 12.9084C141.393 12.9392 141.029 13.0928 140.817 13.3695C140.575 13.6767 140.423 14.1377 140.332 14.8139C140.243 15.4763 140.212 17.7918 140.211 17.8845V19.3934H143.605V18.0627V18.0882C143.603 18.5533 143.594 17.8182 143.573 16.9158L143.57 16.7944C143.551 16.0013 143.523 15.117 143.484 14.8139C143.393 14.1069 143.241 13.6151 142.999 13.3387C142.757 13.062 142.393 12.9084 141.908 12.9084H141.908Z" fill="white"/>
</g>
<defs>
<clipPath id="clip0_41_21">
<rect width="148" height="34" fill="white"/>
</clipPath>
</defs>
</svg>
