<svg width="19" height="16" viewBox="0 0 19 16" fill="none" xmlns="http://www.w3.org/2000/svg">
<path d="M15.5199 12.9107C15.5199 13.127 15.3739 13.2827 15.1639 13.2827C14.9476 13.2827 14.8079 13.1173 14.8079 12.9107C14.8079 12.7041 14.9476 12.5387 15.1639 12.5387C15.3739 12.5387 15.5199 12.7041 15.5199 12.9107ZM5.63821 12.5387C5.41216 12.5387 5.28225 12.7041 5.28225 12.9107C5.28225 13.1173 5.41273 13.2827 5.63821 13.2827C5.8448 13.2827 5.98444 13.127 5.98444 12.9107C5.98101 12.7041 5.8448 12.5387 5.63821 12.5387ZM9.37409 12.5296C9.2024 12.5296 9.0971 12.6406 9.07192 12.806H9.67911C9.6505 12.6246 9.53948 12.5296 9.37409 12.5296ZM12.8015 12.5387C12.5852 12.5387 12.4553 12.7041 12.4553 12.9107C12.4553 13.1173 12.5858 13.2827 12.8015 13.2827C13.0178 13.2827 13.1575 13.127 13.1575 12.9107C13.1575 12.7041 13.0173 12.5387 12.8015 12.5387ZM16.1683 13.3685C16.1683 13.3783 16.178 13.3846 16.178 13.4035C16.178 13.4132 16.1683 13.4195 16.1683 13.4384C16.1585 13.4481 16.1585 13.4544 16.1522 13.4635C16.1425 13.4733 16.1362 13.4796 16.1173 13.4796C16.1076 13.4893 16.1013 13.4893 16.0824 13.4893C16.0727 13.4893 16.0664 13.4893 16.0475 13.4796C16.0378 13.4796 16.0315 13.4698 16.0223 13.4635C16.0126 13.4538 16.0063 13.4475 16.0063 13.4384C15.9966 13.4223 15.9966 13.4132 15.9966 13.4035C15.9966 13.3874 15.9966 13.3783 16.0063 13.3685C16.0063 13.3525 16.016 13.3434 16.0223 13.3336C16.0321 13.3239 16.0383 13.3239 16.0475 13.3176C16.0635 13.3079 16.0727 13.3079 16.0824 13.3079C16.0984 13.3079 16.1076 13.3079 16.1173 13.3176C16.1333 13.3268 16.1425 13.3268 16.1522 13.3336C16.162 13.3405 16.1585 13.3525 16.1683 13.3685ZM16.0984 13.4132C16.1145 13.4132 16.1145 13.4035 16.1236 13.4035C16.1333 13.3937 16.1333 13.3874 16.1333 13.3783C16.1333 13.3691 16.1333 13.3622 16.1236 13.3531C16.1145 13.3531 16.1076 13.3434 16.0887 13.3434H16.0378V13.4544H16.063V13.4097H16.0727L16.1076 13.4544H16.1328L16.0984 13.4132ZM18.4797 2.44132V13.6329C18.4796 14.0377 18.3187 14.4258 18.0325 14.712C17.7463 14.9982 17.3582 15.1591 16.9534 15.1592H1.6923C1.28755 15.1591 0.899423 14.9982 0.613222 14.712C0.327021 14.4258 0.166167 14.0377 0.166016 13.6329V2.44132C0.166167 2.03657 0.327021 1.64845 0.613222 1.36225C0.899423 1.07604 1.28755 0.915191 1.6923 0.915039H16.9534C17.3582 0.915191 17.7463 1.07604 18.0325 1.36225C18.3187 1.64845 18.4796 2.03657 18.4797 2.44132ZM2.20163 6.8794C2.20163 9.31161 4.17602 11.2826 6.6048 11.2826C7.46977 11.2801 8.31516 11.0249 9.03701 10.5483C6.71926 8.66321 6.73528 5.10531 9.03701 3.21963C8.31587 2.74156 7.47001 2.48621 6.6048 2.48539C4.17602 2.48253 2.20163 4.45634 2.20163 6.8794ZM9.32315 10.3389C11.5648 8.58996 11.5551 5.182 9.32315 3.42394C7.09124 5.182 7.08151 8.59339 9.32315 10.3389ZM4.79867 12.7648C4.79867 12.4884 4.61725 12.307 4.33111 12.2972C4.1846 12.2972 4.02894 12.3419 3.92421 12.5038C3.8481 12.3733 3.71762 12.2972 3.5362 12.2972C3.47028 12.2962 3.40511 12.3113 3.34637 12.3412C3.28762 12.3712 3.23707 12.415 3.19913 12.4689V12.3293H2.93874V13.4962H3.19913C3.19913 12.8953 3.11958 12.5359 3.48527 12.5359C3.80976 12.5359 3.74623 12.8604 3.74623 13.4962H3.99747C3.99747 12.9141 3.91792 12.5359 4.28361 12.5359C4.60809 12.5359 4.544 12.8541 4.544 13.4962H4.80496V12.7648H4.79867ZM6.22652 12.3293H5.97528V12.4689C5.93081 12.4134 5.87406 12.3691 5.80951 12.3393C5.74496 12.3095 5.67436 12.2951 5.6033 12.2972C5.27595 12.2972 5.02472 12.5582 5.02472 12.9107C5.02472 13.2667 5.27595 13.5242 5.6033 13.5242C5.76869 13.5242 5.88944 13.4635 5.97528 13.3525V13.499H6.22652V12.3293ZM7.51416 13.1431C7.51416 12.6663 6.78621 12.8821 6.78621 12.6595C6.78621 12.4781 7.16449 12.5073 7.37452 12.6246L7.47925 12.418C7.18052 12.224 6.51896 12.2274 6.51896 12.6789C6.51896 13.1333 7.2469 12.9428 7.2469 13.1557C7.2469 13.356 6.81769 13.3399 6.58877 13.1808L6.47775 13.3811C6.83371 13.6226 7.51416 13.5717 7.51416 13.1425V13.1431ZM8.63984 13.4384L8.57003 13.222C8.44927 13.2884 8.18202 13.3617 8.18202 13.0916V12.5639H8.59864V12.3287H8.18202V11.9727H7.92105V12.3287H7.67955V12.561H7.92105V13.0921C7.92105 13.6518 8.47102 13.55 8.63984 13.4384ZM9.06219 13.0126H9.93664C9.93664 12.4975 9.70143 12.2938 9.38324 12.2938C9.04617 12.2938 8.80466 12.545 8.80466 12.9073C8.80466 13.5591 9.52345 13.6673 9.87941 13.3588L9.75866 13.1682C9.51086 13.372 9.13544 13.3525 9.06219 13.0126ZM10.9416 12.3293C10.7956 12.2657 10.573 12.272 10.4586 12.4689V12.3293H10.1976V13.4962H10.4586V12.838C10.4586 12.4689 10.7607 12.517 10.8655 12.5708L10.9416 12.3293ZM11.2787 12.9107C11.2787 12.5479 11.6478 12.4306 11.9368 12.6435L12.0575 12.4369C11.6884 12.1479 11.0177 12.3064 11.0177 12.9136C11.0177 13.5431 11.7296 13.6701 12.0575 13.3903L11.9368 13.1837C11.6443 13.3903 11.2787 13.2667 11.2787 12.9101V12.9107ZM13.399 12.3293H13.138V12.4689C12.8742 12.1192 12.1874 12.3167 12.1874 12.9107C12.1874 13.5213 12.8994 13.6959 13.138 13.3525V13.499H13.399V12.3293ZM14.4703 12.3293C14.3942 12.2909 14.1206 12.2371 13.9873 12.4689V12.3293H13.736V13.4962H13.9873V12.838C13.9873 12.4884 14.2734 12.5107 14.3942 12.5708L14.4703 12.3293ZM15.7516 11.8554H15.5004V12.4689C15.2394 12.1227 14.5498 12.307 14.5498 12.9107C14.5498 13.5276 15.2652 13.6925 15.5004 13.3525V13.499H15.7516V11.8554ZM15.9937 9.46784V9.61435H16.0189V9.46784H16.079V9.44266H15.9325V9.46784H15.9937ZM16.2032 13.4035C16.2032 13.3874 16.2032 13.3685 16.194 13.3525C16.1843 13.3428 16.178 13.3273 16.1688 13.3176C16.1597 13.3079 16.1437 13.3016 16.1339 13.2924C16.1179 13.2924 16.099 13.2827 16.083 13.2827C16.0733 13.2827 16.0578 13.2924 16.0383 13.2924C16.0258 13.2995 16.0141 13.3079 16.0034 13.3176C15.9874 13.3268 15.9783 13.3428 15.9783 13.3525C15.9685 13.3685 15.9685 13.3874 15.9685 13.4035C15.9685 13.4132 15.9685 13.4286 15.9783 13.4481C15.9783 13.4578 15.988 13.4733 16.0034 13.483C16.0131 13.4938 16.025 13.5024 16.0383 13.5082C16.0544 13.5173 16.0733 13.5173 16.083 13.5173C16.099 13.5173 16.1179 13.5173 16.1339 13.5082C16.1437 13.4984 16.1591 13.4922 16.1688 13.483C16.1786 13.4738 16.1849 13.4578 16.194 13.4481C16.2032 13.4292 16.2032 13.4132 16.2032 13.4035ZM16.305 9.43923H16.2604L16.2095 9.55025L16.1585 9.43923H16.1139V9.61092H16.1391V9.48043L16.19 9.59146H16.2249L16.2696 9.48043V9.61092H16.3045L16.305 9.43923ZM16.4447 6.8794C16.4447 4.45634 14.4703 2.48253 12.0415 2.48253C11.1765 2.4847 10.331 2.73993 9.6093 3.21677C11.9019 5.10245 11.9368 8.66951 9.6093 10.5455C10.3308 11.0227 11.1764 11.278 12.0415 11.2797C14.4703 11.2831 16.4447 9.31161 16.4447 6.8794Z" fill="white"/>
</svg>
