<svg width="19" height="20" viewBox="0 0 19 20" fill="none" xmlns="http://www.w3.org/2000/svg">
<path d="M12.2957 13.4544L9.99897 11.1576C9.91503 11.0737 9.81584 11.0584 9.76242 11.0584C9.70901 11.0584 9.60981 11.0737 9.52588 11.1576L7.22148 13.462C6.96204 13.7215 6.55762 14.1411 5.20703 14.1411L8.03794 16.9644C8.46715 17.3931 9.04897 17.6339 9.6556 17.6339C10.2622 17.6339 10.844 17.3931 11.2733 16.9644L14.1118 14.1335C13.4174 14.1335 12.8375 13.9961 12.2957 13.4544ZM7.22148 6.54881L9.52588 8.85321C9.58692 8.91425 9.67849 8.95241 9.76242 8.95241C9.84636 8.95241 9.93792 8.91425 9.99897 8.85321L12.2805 6.5717C12.8222 6.00704 13.4403 5.87733 14.1347 5.87733L11.2961 3.04642C10.8669 2.61774 10.2851 2.37695 9.67849 2.37695C9.07186 2.37695 8.49004 2.61774 8.06083 3.04642L5.22992 5.86969C6.57289 5.86969 6.98493 6.31226 7.22148 6.54881Z" fill="white"/>
<path d="M16.613 8.36475L14.8962 6.64026H13.9347C13.5227 6.64026 13.1106 6.80813 12.8283 7.10572L10.5392 9.39486C10.3255 9.60851 10.0432 9.71534 9.76086 9.71534C9.47013 9.71125 9.19186 9.59667 8.98255 9.39486L6.67815 7.08283C6.38819 6.79287 5.9914 6.625 5.57173 6.625H4.45005L2.70267 8.38001C2.27399 8.80922 2.0332 9.39104 2.0332 9.99767C2.0332 10.6043 2.27399 11.1861 2.70267 11.6153L4.45005 13.3703H5.57936C5.9914 13.3703 6.38819 13.2025 6.68578 12.9125L8.99018 10.6081C9.20383 10.3945 9.48616 10.2876 9.76849 10.2876C10.0508 10.2876 10.3331 10.3945 10.5468 10.6081L12.8436 12.9049C13.1335 13.1948 13.5303 13.3627 13.95 13.3627H14.9114L16.6283 11.6382C17.0588 11.2013 17.2988 10.6117 17.2959 9.99834C17.2931 9.38496 17.0476 8.79766 16.613 8.36475Z" fill="white"/>
</svg>
