<svg width="22" height="22" viewBox="0 0 22 22" fill="none" xmlns="http://www.w3.org/2000/svg">
<g clip-path="url(#clip0_457_839)">
<path fill-rule="evenodd" clip-rule="evenodd" d="M14.6654 8.25C14.6654 9.22246 14.2791 10.1551 13.5914 10.8427C12.9038 11.5304 11.9712 11.9167 10.9987 11.9167C10.0262 11.9167 9.09361 11.5304 8.40597 10.8427C7.71834 10.1551 7.33203 9.22246 7.33203 8.25C7.33203 7.27754 7.71834 6.34491 8.40597 5.65728C9.09361 4.96964 10.0262 4.58334 10.9987 4.58334C11.9712 4.58334 12.9038 4.96964 13.5914 5.65728C14.2791 6.34491 14.6654 7.27754 14.6654 8.25ZM12.832 8.25C12.832 8.73623 12.6389 9.20255 12.2951 9.54636C11.9512 9.89018 11.4849 10.0833 10.9987 10.0833C10.5125 10.0833 10.0462 9.89018 9.70234 9.54636C9.35852 9.20255 9.16536 8.73623 9.16536 8.25C9.16536 7.76377 9.35852 7.29746 9.70234 6.95364C10.0462 6.60982 10.5125 6.41667 10.9987 6.41667C11.4849 6.41667 11.9512 6.60982 12.2951 6.95364C12.6389 7.29746 12.832 7.76377 12.832 8.25Z" fill="black"/>
<path fill-rule="evenodd" clip-rule="evenodd" d="M10.9993 0.916668C5.4306 0.916668 0.916016 5.43125 0.916016 11C0.916016 16.5688 5.4306 21.0833 10.9993 21.0833C16.5681 21.0833 21.0827 16.5688 21.0827 11C21.0827 5.43125 16.5681 0.916668 10.9993 0.916668ZM2.74935 11C2.74935 12.9158 3.40293 14.6795 4.49835 16.0802C5.26764 15.0699 6.26009 14.2512 7.39816 13.688C8.53623 13.1247 9.78911 12.8322 11.0589 12.8333C12.3123 12.8321 13.5494 13.1171 14.676 13.6664C15.8026 14.2157 16.789 15.0149 17.5599 16.0032C18.3542 14.9615 18.8889 13.7456 19.12 12.4562C19.3511 11.1668 19.2717 9.84091 18.8886 8.58824C18.5055 7.33557 17.8296 6.19213 16.9169 5.25254C16.0041 4.31294 14.8807 3.60421 13.6397 3.18497C12.3987 2.76573 11.0756 2.64804 9.78005 2.84164C8.48449 3.03524 7.25366 3.53457 6.18939 4.2983C5.12512 5.06203 4.25801 6.06822 3.65981 7.2336C3.06161 8.39898 2.74951 9.69005 2.74935 11ZM10.9993 19.25C9.10547 19.2528 7.26876 18.6013 5.80002 17.4057C6.3912 16.5593 7.17807 15.8683 8.09369 15.3915C9.00931 14.9146 10.0266 14.6659 11.0589 14.6667C12.0784 14.6659 13.0834 14.9083 13.9904 15.3738C14.8974 15.8393 15.6802 16.5145 16.2738 17.3433C14.7937 18.5778 12.9267 19.2527 10.9993 19.25Z" fill="black"/>
</g>
<defs>
<clipPath id="clip0_457_839">
<rect width="22" height="22" fill="white"/>
</clipPath>
</defs>
</svg>
