<svg width="35" height="12" viewBox="0 0 35 12" fill="none" xmlns="http://www.w3.org/2000/svg">
<path d="M31.4905 11.3447L31.1717 9.7505H27.6091L27.0423 11.3334L24.1869 11.3391C25.5462 8.07003 26.9085 4.80223 28.2737 1.53564C28.5061 0.98156 28.9185 0.699561 29.5264 0.702395C29.9912 0.706646 30.7494 0.706645 31.8023 0.703811L34.0101 11.3405L31.4905 11.3447ZM28.4112 7.56677H30.7069L29.8495 3.57058L28.4112 7.56677ZM10.0046 0.700977L12.8757 0.703811L8.43734 11.3461L5.53089 11.3433C4.80003 8.53225 4.07825 5.71885 3.36558 2.90313C3.22387 2.34196 2.94329 1.94943 2.40338 1.76379C1.60588 1.49656 0.804673 1.24052 0 0.995731L0 0.705229H4.58711C5.38068 0.705229 5.84407 1.08926 5.99286 1.87716C6.14307 2.66648 6.52002 4.67591 7.12653 7.90545L10.0046 0.700977ZM16.8208 0.703811L14.5507 11.3433L11.8185 11.3405L14.0858 0.700977L16.8208 0.703811ZM22.3616 0.506836C23.1793 0.506836 24.2095 0.761912 24.8019 0.995731L24.3229 3.20214C23.7872 2.98674 22.9058 2.69624 22.1647 2.70616C21.0877 2.72458 20.4216 3.17663 20.4216 3.61026C20.4216 4.31597 21.578 4.67166 22.7683 5.44255C24.1273 6.32115 24.3059 7.11046 24.2889 7.9678C24.2705 9.74766 22.7683 11.5034 19.5997 11.5034C18.1543 11.4822 17.6328 11.3603 16.4538 10.9423L16.9526 8.6395C18.1529 9.14257 18.6616 9.3027 19.6876 9.3027C20.6271 9.3027 21.4334 8.92292 21.4405 8.26114C21.4462 7.79067 21.1571 7.55685 20.1028 6.97584C19.0485 6.39342 17.5691 5.58709 17.5889 3.96878C17.613 1.897 19.5756 0.506836 22.3631 0.506836H22.3616Z" fill="white"/>
</svg>
