<svg width="24" height="24" viewBox="0 0 24 24" fill="none" xmlns="http://www.w3.org/2000/svg">
<path d="M20.2259 3.72857C19.1563 2.64815 17.8823 1.79151 16.4782 1.20863C15.074 0.625739 13.5679 0.328269 12.0476 0.333566C5.67758 0.333566 0.485912 5.52523 0.485912 11.8952C0.485912 13.9369 1.02258 15.9202 2.02591 17.6702L0.392578 23.6669L6.51758 22.0569C8.20925 22.9786 10.1109 23.4686 12.0476 23.4686C18.4176 23.4686 23.6092 18.2769 23.6092 11.9069C23.6092 8.81523 22.4076 5.91023 20.2259 3.72857ZM12.0476 21.5086C10.3209 21.5086 8.62925 21.0419 7.14758 20.1669L6.79758 19.9569L3.15758 20.9136L4.12591 17.3669L3.89258 17.0052C2.93328 15.4734 2.42391 13.7027 2.42258 11.8952C2.42258 6.59856 6.73924 2.2819 12.0359 2.2819C14.6026 2.2819 17.0176 3.28523 18.8259 5.10523C19.7213 5.99652 20.4309 7.05667 20.9135 8.22423C21.3962 9.39178 21.6423 10.6435 21.6376 11.9069C21.6609 17.2036 17.3442 21.5086 12.0476 21.5086ZM17.3209 14.3219C17.0292 14.1819 15.6059 13.4819 15.3492 13.3769C15.0809 13.2836 14.8942 13.2369 14.6959 13.5169C14.4976 13.8086 13.9492 14.4619 13.7859 14.6486C13.6226 14.8469 13.4476 14.8702 13.1559 14.7186C12.8642 14.5786 11.9309 14.2636 10.8342 13.2836C9.97091 12.5136 9.39925 11.5686 9.22425 11.2769C9.06091 10.9852 9.20091 10.8336 9.35258 10.6819C9.48091 10.5536 9.64425 10.3436 9.78425 10.1802C9.92425 10.0169 9.98258 9.88856 10.0759 9.7019C10.1692 9.50356 10.1226 9.34023 10.0526 9.20023C9.98258 9.06023 9.39925 7.6369 9.16591 7.05357C8.93258 6.49357 8.68758 6.56357 8.51258 6.5519H7.95258C7.75424 6.5519 7.45091 6.6219 7.18258 6.91357C6.92591 7.20523 6.17924 7.90523 6.17924 9.32857C6.17924 10.7519 7.21758 12.1286 7.35758 12.3152C7.49758 12.5136 9.39925 15.4302 12.2926 16.6786C12.9809 16.9819 13.5176 17.1569 13.9376 17.2852C14.6259 17.5069 15.2559 17.4719 15.7576 17.4019C16.3176 17.3202 17.4726 16.7019 17.7059 16.0252C17.9509 15.3486 17.9509 14.7769 17.8692 14.6486C17.7876 14.5202 17.6126 14.4619 17.3209 14.3219Z" fill="black"/>
</svg>
