<svg width="29" height="29" viewBox="0 0 29 29" fill="none" xmlns="http://www.w3.org/2000/svg">
<path d="M20.495 17.25C20.605 16.3425 20.6875 15.435 20.6875 14.5C20.6875 13.565 20.605 12.6575 20.495 11.75H25.1425C25.3625 12.63 25.5 13.5513 25.5 14.5C25.5 15.4487 25.3625 16.37 25.1425 17.25M18.0613 24.895C18.8863 23.3687 19.5188 21.7188 19.9588 20H24.015C22.6829 22.2939 20.5694 24.0315 18.0613 24.895ZM17.7175 17.25H11.2825C11.145 16.3425 11.0625 15.435 11.0625 14.5C11.0625 13.565 11.145 12.6437 11.2825 11.75H17.7175C17.8413 12.6437 17.9375 13.565 17.9375 14.5C17.9375 15.435 17.8413 16.3425 17.7175 17.25ZM14.5 25.445C13.3588 23.795 12.4375 21.9662 11.8738 20H17.1262C16.5625 21.9662 15.6412 23.795 14.5 25.445ZM9 9H4.985C6.30343 6.69992 8.41534 4.95954 10.925 4.105C10.1 5.63125 9.48125 7.28125 9 9ZM4.985 20H9C9.48125 21.7188 10.1 23.3687 10.925 24.895C8.42061 24.031 6.31166 22.2931 4.985 20ZM3.8575 17.25C3.6375 16.37 3.5 15.4487 3.5 14.5C3.5 13.5513 3.6375 12.63 3.8575 11.75H8.505C8.395 12.6575 8.3125 13.565 8.3125 14.5C8.3125 15.435 8.395 16.3425 8.505 17.25M14.5 3.54125C15.6412 5.19125 16.5625 7.03375 17.1262 9H11.8738C12.4375 7.03375 13.3588 5.19125 14.5 3.54125ZM24.015 9H19.9588C19.5284 7.297 18.8912 5.65311 18.0613 4.105C20.5913 4.97125 22.695 6.7175 24.015 9ZM14.5 0.75C6.89625 0.75 0.75 6.9375 0.75 14.5C0.75 18.1467 2.19866 21.6441 4.77728 24.2227C6.05409 25.4995 7.56988 26.5123 9.2381 27.2033C10.9063 27.8943 12.6943 28.25 14.5 28.25C18.1467 28.25 21.6441 26.8013 24.2227 24.2227C26.8013 21.6441 28.25 18.1467 28.25 14.5C28.25 12.6943 27.8943 10.9063 27.2033 9.2381C26.5123 7.56988 25.4995 6.05409 24.2227 4.77728C22.9459 3.50048 21.4301 2.48766 19.7619 1.79666C18.0937 1.10565 16.3057 0.75 14.5 0.75Z" fill="white"/>
</svg>
